<?xml version="1.0" encoding="UTF-8"?>
<svg width="270px" height="80px" viewBox="0 0 270 80" version="1.1" xmlns="http://www.w3.org/2000/svg" xmlns:xlink="http://www.w3.org/1999/xlink">
    <title>1B4D9A7E-C7BF-42DE-9CA3-80E889EC9B47@3x</title>
    <g id="Page-1" stroke="none" stroke-width="1" fill="none" fill-rule="evenodd">
        <g id="Extra-Large" transform="translate(-256.000000, -34.000000)">
            <g id="Group-4" transform="translate(256.000000, 34.000000)">
                <g id="Joy-of-Giving" transform="translate(108.015625, 32.214844)" fill="#000000" fill-rule="nonzero">
                    <path d="M3.09375,2.37890625 L3.09375,17.0273438 C3.09375,18.6328125 2.671875,19.4414062 1.81640625,19.4414062 C1.0546875,19.4414062 0.66796875,18.9726562 0.65625,18.0351562 L0,18.0351562 L0,20.2617188 C0.94921875,20.484375 1.62890625,20.5898438 2.015625,20.5898438 C3.26953125,20.5898438 4.16015625,20.0859375 4.6875,19.078125 C5.21484375,18.0703125 5.47265625,16.5703125 5.47265625,14.5664062 L5.47265625,2.37890625 C5.47265625,1.2421875 5.80078125,0.66796875 6.45703125,0.66796875 L7.20703125,0.66796875 L7.20703125,0.10546875 L1.2421875,0.10546875 L1.2421875,0.66796875 L2.05078125,0.66796875 C2.7421875,0.66796875 3.09375,1.2421875 3.09375,2.37890625 Z" id="Path"></path>
                    <path d="M19.0195313,1.86328125 C20.390625,2.80078125 21.3398438,4.30078125 21.890625,6.375 C22.4296875,8.44921875 22.3359375,10.2773438 21.5976563,11.8828125 C20.859375,13.4882813 19.7578125,14.484375 18.28125,14.8710938 C16.8046875,15.2578125 15.3984375,14.9648438 14.0625,14.015625 C12.7148438,13.0664063 11.7773438,11.5664063 11.2382812,9.4921875 C10.6992188,7.41796875 10.78125,5.58984375 11.484375,3.99609375 C12.1757813,2.4140625 13.265625,1.41796875 14.7421875,1.03125 C16.21875,0.64453125 17.6484375,0.92578125 19.0195313,1.86328125 Z M8.37890625,7.95703125 C8.37890625,10.078125 9.12890625,11.9296875 10.640625,13.5234375 C12.140625,15.1171875 14.109375,15.9140625 16.5585938,15.9140625 C18.9960938,15.9140625 20.9648438,15.1171875 22.4765625,13.5234375 C23.9882812,11.9296875 24.7382812,10.078125 24.7382812,7.95703125 C24.7382812,5.8359375 23.9882812,3.984375 22.4765625,2.390625 C20.9648438,0.796875 18.9960938,0 16.5585938,0 C14.109375,0 12.140625,0.796875 10.640625,2.390625 C9.12890625,3.984375 8.37890625,5.8359375 8.37890625,7.95703125 Z" id="Shape"></path>
                    <path d="M34.3007812,8.02734375 L38.0507812,1.875 C38.5078125,1.06640625 39.0703125,0.66796875 39.7265625,0.66796875 L40.5234375,0.66796875 L40.5234375,0.10546875 L35.0742188,0.10546875 L35.0742188,0.66796875 L36.5039062,0.66796875 C36.9140625,0.66796875 37.1132812,0.8203125 37.1132812,1.13671875 C37.1132812,1.3828125 36.9960938,1.67578125 36.7617188,2.0390625 L33.6328125,7.18359375 L30.65625,1.921875 C30.5039062,1.640625 30.421875,1.3828125 30.421875,1.13671875 C30.421875,0.8203125 30.6210938,0.66796875 31.03125,0.66796875 L31.7578125,0.66796875 L31.7578125,0.10546875 L25.5820312,0.10546875 L25.5820312,0.66796875 L26.3789062,0.66796875 C27.0117188,0.66796875 27.5742188,1.06640625 28.0546875,1.875 L31.921875,8.5078125 L31.921875,13.5117188 C31.921875,14.6484375 31.5703125,15.2226562 30.8789062,15.2226562 L30.0703125,15.2226562 L30.0703125,15.7851562 L36.0351562,15.7851562 L36.0351562,15.2226562 L35.2851562,15.2226562 C34.6289062,15.2226562 34.3007812,14.6484375 34.3007812,13.5117188 L34.3007812,8.02734375 Z" id="Path"></path>
                    <path d="M56.8828125,1.86328125 C58.2539062,2.80078125 59.203125,4.30078125 59.7539062,6.375 C60.2929688,8.44921875 60.1992188,10.2773438 59.4609375,11.8828125 C58.7226562,13.4882813 57.6210938,14.484375 56.1445312,14.8710938 C54.6679688,15.2578125 53.2617188,14.9648438 51.9257812,14.015625 C50.578125,13.0664063 49.640625,11.5664063 49.1015625,9.4921875 C48.5625,7.41796875 48.6445312,5.58984375 49.3476562,3.99609375 C50.0390625,2.4140625 51.1289062,1.41796875 52.6054688,1.03125 C54.0820312,0.64453125 55.5117188,0.92578125 56.8828125,1.86328125 Z M46.2421875,7.95703125 C46.2421875,10.078125 46.9921875,11.9296875 48.5039062,13.5234375 C50.0039062,15.1171875 51.9726562,15.9140625 54.421875,15.9140625 C56.859375,15.9140625 58.828125,15.1171875 60.3398438,13.5234375 C61.8515625,11.9296875 62.6015625,10.078125 62.6015625,7.95703125 C62.6015625,5.8359375 61.8515625,3.984375 60.3398438,2.390625 C58.828125,0.796875 56.859375,0 54.421875,0 C51.9726562,0 50.0039062,0.796875 48.5039062,2.390625 C46.9921875,3.984375 46.2421875,5.8359375 46.2421875,7.95703125 Z" id="Shape"></path>
                    <path d="M67.9804688,7.453125 L67.9804688,2.37890625 C67.9804688,1.2421875 68.3085938,0.66796875 68.9648438,0.66796875 L71.7539062,0.66796875 C73.2539062,0.66796875 74.2148438,1.41796875 74.625,2.9296875 L75.328125,2.9296875 L74.5078125,0.10546875 L63.75,0.10546875 L63.75,0.66796875 L64.5585938,0.66796875 C65.25,0.66796875 65.6015625,1.2421875 65.6015625,2.37890625 L65.6015625,13.5117188 C65.6015625,14.6484375 65.25,15.2226562 64.5585938,15.2226562 L63.75,15.2226562 L63.75,15.7851562 L69.9375,15.7851562 L69.9375,15.2226562 L68.9648438,15.2226562 C68.3085938,15.2226562 67.9804688,14.6484375 67.9804688,13.5117188 L67.9804688,8.4375 L71.9765625,8.4375 C72.7148438,8.4375 73.0898438,8.91796875 73.0898438,9.890625 L73.6992188,9.890625 L73.6992188,6 L73.0898438,6 C73.0898438,6.97265625 72.7148438,7.453125 71.9765625,7.453125 L67.9804688,7.453125 Z" id="Path"></path>
                    <path d="M95.0390625,15.2109375 L95.0390625,11.0625 C95.0390625,9.92578125 95.2851562,9.3515625 95.7890625,9.3515625 L96.5390625,9.3515625 L96.5390625,8.7890625 L90.4570312,8.7890625 L90.4570312,9.3515625 L91.6171875,9.3515625 C92.3085938,9.3515625 92.6601562,9.92578125 92.6601562,11.0625 L92.6601562,14.5429688 C92.3085938,14.71875 91.8398438,14.8828125 91.2539062,15.0117188 C89.7421875,15.3515625 88.3125,15.0234375 86.9414062,14.0507812 C85.5703125,13.078125 84.6328125,11.6015625 84.1289062,9.609375 C83.625,7.62890625 83.6601562,5.953125 84.2226562,4.58203125 C84.7734375,3.2109375 85.5,2.26171875 86.4023438,1.7109375 C87.2929688,1.171875 88.265625,0.90234375 89.3085938,0.90234375 C90.5742188,0.90234375 91.5585938,1.125 92.25,1.5703125 C92.9414062,2.02734375 93.4570312,2.765625 93.8085938,3.80859375 L94.5703125,3.80859375 L93.65625,0.22265625 L93.1289062,0.22265625 C93.1171875,0.4921875 93.1289062,0.6328125 93.1640625,0.6328125 C92.9648438,0.6328125 92.5546875,0.5390625 91.9335938,0.3515625 C91.3125,0.17578125 90.421875,0.08203125 89.2734375,0.08203125 C87.0234375,0.08203125 85.1015625,0.890625 83.5078125,2.5078125 C81.9726562,4.01953125 81.2109375,5.8359375 81.2109375,7.95703125 C81.2109375,10.078125 81.9609375,11.9296875 83.4726562,13.5234375 C84.9726562,15.1171875 86.9414062,15.9140625 89.390625,15.9140625 C90.8203125,15.9140625 92.0273438,15.703125 93.0234375,15.2695312 C93.609375,15.0234375 94.2773438,15.0117188 95.0390625,15.2109375 Z" id="Path"></path>
                    <path d="M101.800781,13.5117188 L101.800781,2.37890625 C101.800781,1.2421875 102.128906,0.66796875 102.785156,0.66796875 L103.535156,0.66796875 L103.535156,0.10546875 L97.5703125,0.10546875 L97.5703125,0.66796875 L98.3789062,0.66796875 C99.0703125,0.66796875 99.421875,1.2421875 99.421875,2.37890625 L99.421875,13.5117188 C99.421875,14.6484375 99.0703125,15.2226562 98.3789062,15.2226562 L97.5703125,15.2226562 L97.5703125,15.7851562 L103.535156,15.7851562 L103.535156,15.2226562 L102.785156,15.2226562 C102.128906,15.2226562 101.800781,14.6484375 101.800781,13.5117188 Z" id="Path"></path>
                    <path d="M112.582031,16.0546875 L118.535156,2.1328125 C118.957031,1.16015625 119.449219,0.66796875 120,0.66796875 L120.808594,0.66796875 L120.808594,0.10546875 L116.015625,0.10546875 L116.015625,0.66796875 L116.765625,0.66796875 C117.515625,0.66796875 117.679688,1.18359375 117.246094,2.21484375 L113.25,11.8125 L109.113281,2.21484375 C108.679688,1.18359375 108.84375,0.66796875 109.59375,0.66796875 L110.34375,0.66796875 L110.34375,0.10546875 L104.378906,0.10546875 L104.378906,0.66796875 L105.1875,0.66796875 C105.738281,0.66796875 106.230469,1.16015625 106.652344,2.1328125 L112.582031,16.0546875 Z" id="Path"></path>
                    <path d="M125.859375,13.5117188 L125.859375,2.37890625 C125.859375,1.2421875 126.1875,0.66796875 126.84375,0.66796875 L127.59375,0.66796875 L127.59375,0.10546875 L121.628906,0.10546875 L121.628906,0.66796875 L122.4375,0.66796875 C123.128906,0.66796875 123.480469,1.2421875 123.480469,2.37890625 L123.480469,13.5117188 C123.480469,14.6484375 123.128906,15.2226562 122.4375,15.2226562 L121.628906,15.2226562 L121.628906,15.7851562 L127.59375,15.7851562 L127.59375,15.2226562 L126.84375,15.2226562 C126.1875,15.2226562 125.859375,14.6484375 125.859375,13.5117188 Z" id="Path"></path>
                    <path d="M131.964844,4.03125 L142.453125,15.7851562 L143.097656,15.7851562 L143.097656,2.37890625 C143.097656,1.2421875 143.425781,0.66796875 144.082031,0.66796875 L144.832031,0.66796875 L144.832031,0.10546875 L140.039062,0.10546875 L140.039062,0.66796875 L140.847656,0.66796875 C141.539062,0.66796875 141.890625,1.2421875 141.890625,2.37890625 L141.890625,11.71875 L131.753906,0.10546875 L128.90625,0.10546875 L128.90625,0.66796875 L129.714844,0.66796875 C130.40625,0.66796875 130.757812,1.2421875 130.757812,2.37890625 L130.757812,13.5117188 C130.757812,14.6484375 130.40625,15.2226562 129.714844,15.2226562 L128.90625,15.2226562 L128.90625,15.7851562 L133.699219,15.7851562 L133.699219,15.2226562 L132.949219,15.2226562 C132.292969,15.2226562 131.964844,14.6484375 131.964844,13.5117188 L131.964844,4.03125 Z" id="Path"></path>
                    <path d="M159.738281,15.2109375 L159.738281,11.0625 C159.738281,9.92578125 159.984375,9.3515625 160.488281,9.3515625 L161.238281,9.3515625 L161.238281,8.7890625 L155.15625,8.7890625 L155.15625,9.3515625 L156.316406,9.3515625 C157.007812,9.3515625 157.359375,9.92578125 157.359375,11.0625 L157.359375,14.5429688 C157.007812,14.71875 156.539062,14.8828125 155.953125,15.0117188 C154.441406,15.3515625 153.011719,15.0234375 151.640625,14.0507812 C150.269531,13.078125 149.332031,11.6015625 148.828125,9.609375 C148.324219,7.62890625 148.359375,5.953125 148.921875,4.58203125 C149.472656,3.2109375 150.199219,2.26171875 151.101562,1.7109375 C151.992188,1.171875 152.964844,0.90234375 154.007812,0.90234375 C155.273438,0.90234375 156.257812,1.125 156.949219,1.5703125 C157.640625,2.02734375 158.15625,2.765625 158.507812,3.80859375 L159.269531,3.80859375 L158.355469,0.22265625 L157.828125,0.22265625 C157.816406,0.4921875 157.828125,0.6328125 157.863281,0.6328125 C157.664062,0.6328125 157.253906,0.5390625 156.632812,0.3515625 C156.011719,0.17578125 155.121094,0.08203125 153.972656,0.08203125 C151.722656,0.08203125 149.800781,0.890625 148.207031,2.5078125 C146.671875,4.01953125 145.910156,5.8359375 145.910156,7.95703125 C145.910156,10.078125 146.660156,11.9296875 148.171875,13.5234375 C149.671875,15.1171875 151.640625,15.9140625 154.089844,15.9140625 C155.519531,15.9140625 156.726562,15.703125 157.722656,15.2695312 C158.308594,15.0234375 158.976562,15.0117188 159.738281,15.2109375 Z" id="Path"></path>
                </g>
                <g id="IIT_Madras_Logo-2" transform="translate(-0.000000, 0.000000)">
                    <g id="g3010" transform="translate(40.000000, 40.000000) scale(-1, 1) rotate(-180.000000) translate(-40.000000, -40.000000) translate(0.000000, 0.000000)">
                        <path d="M80,40.0003333 C80,17.9093333 62.0906667,0 39.9996667,0 C17.9085556,0 -2.17784526e-15,17.9093333 -2.17784526e-15,40.0003333 C-2.17784526e-15,62.0916667 17.9085556,80 39.9996667,80 C62.0906667,80 80,62.0916667 80,40.0003333" id="path38" fill="#781F19" fill-rule="nonzero"></path>
                        <path d="M70.8683333,40.0003333 C70.8683333,22.9517778 57.0481111,9.13166667 39.9996667,9.13166667 C22.9517778,9.13166667 9.13155556,22.9517778 9.13155556,40.0003333 C9.13155556,57.0482222 22.9517778,70.8686667 39.9996667,70.8686667 C57.0481111,70.8686667 70.8683333,57.0482222 70.8683333,40.0003333" id="path40" fill="#D6A64F" fill-rule="nonzero"></path>
                        <path d="M70.8683333,40.0003333 C70.8683333,22.9517778 57.0481111,9.13166667 39.9996667,9.13166667 C22.9517778,9.13166667 9.13155556,22.9517778 9.13155556,40.0003333 C9.13155556,57.0482222 22.9517778,70.8686667 39.9996667,70.8686667 C57.0481111,70.8686667 70.8683333,57.0482222 70.8683333,40.0003333 L70.8683333,40.0003333 Z" id="path42" stroke="#FFFFFF" stroke-width="0.83313306"></path>
                        <path d="M13.2664444,13.4293333 C13.2664444,13.4293333 16.5857778,16.8236667 16.5857778,16.8236667 C16.5857778,16.8236667 17.3511111,16.075 17.3511111,16.075 C17.3511111,16.075 14.0317778,12.6812222 14.0317778,12.6812222 C14.0317778,12.6812222 13.2664444,13.4293333 13.2664444,13.4293333" id="path44" fill="#FFFFFF" fill-rule="nonzero"></path>
                        <path d="M15.6141111,17.7682222 C15.6141111,17.7682222 11.9234444,14.7811111 11.9234444,14.7811111 C11.9234444,14.7811111 11.1347778,15.7565556 11.1347778,15.7565556 C11.1347778,15.7565556 11.867,17.6176667 11.867,17.6176667 C12.0786667,18.1514444 12.3656667,18.7373333 12.644,19.2431111 C12.644,19.2431111 12.6351111,19.2544444 12.6351111,19.2544444 C12.1878889,18.8106667 11.7034444,18.3908889 11.1444444,17.9388889 C11.1444444,17.9388889 10.0713333,17.0705556 10.0713333,17.0705556 C10.0713333,17.0705556 9.45088889,17.8371111 9.45088889,17.8371111 C9.45088889,17.8371111 13.1415556,20.8233333 13.1415556,20.8233333 C13.1415556,20.8233333 13.8502222,19.9474444 13.8502222,19.9474444 C13.8502222,19.9474444 13.0646667,18.0072222 13.0646667,18.0072222 C12.842,17.4642222 12.5708889,16.8368889 12.2798889,16.3114444 C12.2798889,16.3114444 12.2971111,16.2897778 12.2971111,16.2897778 C12.7686667,16.7155556 13.2795556,17.1476667 13.8814444,17.6352222 C13.8814444,17.6352222 14.9932222,18.5347778 14.9932222,18.5347778 C14.9932222,18.5347778 15.614,17.7682222 15.614,17.7682222" id="path46" fill="#FFFFFF" fill-rule="nonzero"></path>
                        <path d="M11.1378889,22.4714444 C11.1104444,22.5608889 11.034,22.6957778 10.971,22.806 C10.491,23.6592222 9.708,23.9502222 8.724,23.3867778 C7.83677778,22.8796667 7.702,22.1373333 8.16344444,21.3294444 C8.27933333,21.1284444 8.37755556,20.9977778 8.44155556,20.9287778 C8.44155556,20.9287778 11.1378889,22.4714444 11.1378889,22.4714444 L11.1378889,22.4714444 Z M8.313,19.6223333 C8.05533333,19.9297778 7.77,20.3584444 7.50422222,20.8226667 C7.05288889,21.612 6.88755556,22.1984444 6.96344444,22.7608889 C7.03677778,23.3716667 7.39622222,23.9335556 8.13033333,24.3533333 C8.91866667,24.8046667 9.627,24.8286667 10.1876667,24.6298889 C10.7962222,24.4022222 11.3488889,23.8336667 11.8103333,23.0264444 C12.0868889,22.5433333 12.2556667,22.1776667 12.3543333,21.9332222 C12.3543333,21.9332222 8.313,19.6223333 8.313,19.6223333" id="path48" fill="#FFFFFF" fill-rule="nonzero"></path>
                        <path d="M5.08211111,25.7852222 C5.08211111,25.7852222 9.45222222,27.64 9.45222222,27.64 C9.45222222,27.64 9.87077778,26.6541111 9.87077778,26.6541111 C9.87077778,26.6541111 5.50011111,24.7996667 5.50011111,24.7996667 C5.50011111,24.7996667 5.08211111,25.7852222 5.08211111,25.7852222" id="path50" fill="#FFFFFF" fill-rule="nonzero"></path>
                        <path d="M6.33188889,30.5325556 C6.33188889,30.5325556 5.45,29.9637778 5.45,29.9637778 C5.20155556,29.8094444 4.88055556,29.6274444 4.63711111,29.4815556 C4.63711111,29.4815556 4.64377778,29.4616667 4.64377778,29.4616667 C4.93188889,29.4806667 5.29788889,29.508 5.582,29.5174444 C5.582,29.5174444 6.62955556,29.5252222 6.62955556,29.5252222 C6.62955556,29.5252222 6.33188889,30.5321111 6.33188889,30.5321111 L6.33188889,30.5325556 Z M7.44344444,29.6041111 C7.44344444,29.6041111 8.70577778,29.6314444 8.70577778,29.6314444 C8.70577778,29.6314444 9.02044444,28.5644444 9.02044444,28.5644444 C9.02044444,28.5644444 4.05633333,28.6128889 4.05633333,28.6128889 C4.05633333,28.6128889 3.65977778,29.9571111 3.65977778,29.9571111 C3.65977778,29.9571111 7.79522222,32.7193333 7.79522222,32.7193333 C7.79522222,32.7193333 8.12188889,31.611 8.12188889,31.611 C8.12188889,31.611 7.057,30.9155556 7.057,30.9155556 C7.057,30.9155556 7.44344444,29.6041111 7.44344444,29.6041111" id="path52" fill="#FFFFFF" fill-rule="nonzero"></path>
                        <path d="M7.59111111,33.7533333 C7.59111111,33.7533333 2.88377778,33.1395556 2.88377778,33.1395556 C2.88377778,33.1395556 2.72155556,34.3826667 2.72155556,34.3826667 C2.72155556,34.3826667 4.31933333,35.5855556 4.31933333,35.5855556 C4.77888889,35.9297778 5.32966667,36.2784444 5.83233333,36.5641111 C5.83233333,36.5641111 5.83122222,36.5782222 5.83122222,36.5782222 C5.218,36.4346667 4.585,36.331 3.87277778,36.2377778 C3.87277778,36.2377778 2.50366667,36.0588889 2.50366667,36.0588889 C2.50366667,36.0588889 2.37577778,37.0368889 2.37577778,37.0368889 C2.37577778,37.0368889 7.08355556,37.6501111 7.08355556,37.6501111 C7.08355556,37.6501111 7.22933333,36.5328889 7.22933333,36.5328889 C7.22933333,36.5328889 5.54466667,35.2903333 5.54466667,35.2903333 C5.07122222,34.9442222 4.51088889,34.5521111 3.98844444,34.2566667 C3.98844444,34.2566667 3.99288889,34.229 3.99288889,34.229 C4.61677778,34.3457778 5.27855556,34.446 6.047,34.5464444 C6.047,34.5464444 7.46433333,34.731 7.46433333,34.731 C7.46433333,34.731 7.59188889,33.7533333 7.59188889,33.7533333" id="path54" fill="#FFFFFF" fill-rule="nonzero"></path>
                        <path d="M2.36755556,42.1278889 C2.36755556,42.1278889 7.11111111,41.9301111 7.11111111,41.9301111 C7.11111111,41.9301111 7.06644444,40.8604444 7.06644444,40.8604444 C7.06644444,40.8604444 2.32277778,41.0582222 2.32277778,41.0582222 C2.32277778,41.0582222 2.36755556,42.1278889 2.36755556,42.1278889" id="path56" fill="#FFFFFF" fill-rule="nonzero"></path>
                        <path d="M7.16344444,43.2935556 C7.16344444,43.2935556 2.47522222,44.0418889 2.47522222,44.0418889 C2.47522222,44.0418889 2.673,45.28 2.673,45.28 C2.673,45.28 4.54611111,45.9795556 4.54611111,45.9795556 C5.084,46.1788889 5.71211111,46.3571111 6.27488889,46.4878889 C6.27488889,46.4878889 6.27822222,46.502 6.27822222,46.502 C5.64922222,46.5382222 5.01266667,46.6182222 4.30333333,46.7316667 C4.30333333,46.7316667 2.93955556,46.9493333 2.93955556,46.9493333 C2.93955556,46.9493333 3.09555556,47.9231111 3.09555556,47.9231111 C3.09555556,47.9231111 7.78333333,47.1747778 7.78333333,47.1747778 C7.78333333,47.1747778 7.60577778,46.0616667 7.60577778,46.0616667 C7.60577778,46.0616667 5.63788889,45.349 5.63788889,45.349 C5.08544444,45.1517778 4.43688889,44.9341111 3.852,44.7993333 C3.852,44.7993333 3.84755556,44.7716667 3.84755556,44.7716667 C4.47933333,44.7064444 5.14233333,44.6147778 5.907,44.4925556 C5.907,44.4925556 7.319,44.2671111 7.319,44.2671111 C7.319,44.2671111 7.16377778,43.2935556 7.16377778,43.2935556" id="path58" fill="#FFFFFF" fill-rule="nonzero"></path>
                        <path d="M7.09188889,48.8465556 C7.31744444,49.0712222 7.593,49.457 7.73,49.8941111 C7.87744444,50.3646667 7.76022222,50.6743333 7.45788889,50.7691111 C7.182,50.8554444 6.94666667,50.6928889 6.588,50.2072222 C6.08344444,49.5388889 5.51111111,49.1716667 4.84566667,49.3801111 C4.07233333,49.6223333 3.69155556,50.4576667 4.02455556,51.5196667 C4.18644444,52.0374444 4.40311111,52.3751111 4.61533333,52.6041111 C4.61533333,52.6041111 5.36344444,52.1187778 5.36344444,52.1187778 C5.22133333,51.9713333 4.99044444,51.6818889 4.85377778,51.2453333 C4.71455556,50.8015556 4.856,50.5212222 5.084,50.4494444 C5.37344444,50.359 5.57911111,50.5678889 5.99266667,51.0875556 C6.53911111,51.795 7.07177778,52.0343333 7.71711111,51.8317778 C8.47677778,51.594 8.94077778,50.8141111 8.55144444,49.5703333 C8.38922222,49.0528889 8.08811111,48.5861111 7.867,48.3751111 C7.867,48.3751111 7.09188889,48.8465556 7.09188889,48.8465556" id="path60" fill="#FFFFFF" fill-rule="nonzero"></path>
                        <path d="M6.37133333,54.9411111 C6.37133333,54.9411111 5.83233333,53.7773333 5.83233333,53.7773333 C5.83233333,53.7773333 5.01477778,54.1558889 5.01477778,54.1558889 C5.01477778,54.1558889 6.54733333,57.4674444 6.54733333,57.4674444 C6.54733333,57.4674444 7.365,57.0887778 7.365,57.0887778 C7.365,57.0887778 6.82133333,55.9124444 6.82133333,55.9124444 C6.82133333,55.9124444 10.3111111,54.2973333 10.3111111,54.2973333 C10.3111111,54.2973333 9.86233333,53.3256667 9.86233333,53.3256667 C9.86233333,53.3256667 6.37133333,54.9411111 6.37133333,54.9411111" id="path62" fill="#FFFFFF" fill-rule="nonzero"></path>
                        <path d="M7.84811111,59.6803333 C7.84811111,59.6803333 11.9306667,57.2566667 11.9306667,57.2566667 C11.9306667,57.2566667 11.3842222,56.336 11.3842222,56.336 C11.3842222,56.336 7.30166667,58.7596667 7.30166667,58.7596667 C7.30166667,58.7596667 7.84811111,59.6803333 7.84811111,59.6803333" id="path64" fill="#FFFFFF" fill-rule="nonzero"></path>
                        <path d="M10.102,61.4431111 C10.102,61.4431111 9.33888889,60.4132222 9.33888889,60.4132222 C9.33888889,60.4132222 8.61477778,60.9498889 8.61477778,60.9498889 C8.61477778,60.9498889 10.7866667,63.8815556 10.7866667,63.8815556 C10.7866667,63.8815556 11.5107778,63.3448889 11.5107778,63.3448889 C11.5107778,63.3448889 10.7397778,62.3033333 10.7397778,62.3033333 C10.7397778,62.3033333 13.8302222,60.0138889 13.8302222,60.0138889 C13.8302222,60.0138889 13.1926667,59.1536667 13.1926667,59.1536667 C13.1926667,59.1536667 10.102,61.4431111 10.102,61.4431111" id="path66" fill="#FFFFFF" fill-rule="nonzero"></path>
                        <path d="M12.621,65.9143333 C12.621,65.9143333 14.5574444,63.995 14.5574444,63.995 C15.1423333,63.4151111 15.661,63.3476667 16.0427778,63.7328889 C16.4393333,64.1328889 16.3772222,64.6308889 15.777,65.2257778 C15.777,65.2257778 13.8408889,67.1448889 13.8408889,67.1448889 C13.8408889,67.1448889 14.5948889,67.9052222 14.5948889,67.9052222 C14.5948889,67.9052222 16.4856667,66.0308889 16.4856667,66.0308889 C17.5262222,64.9996667 17.5013333,63.9836667 16.6283333,63.1026667 C15.7854444,62.2522222 14.8194444,62.228 13.7485556,63.2894444 C13.7485556,63.2894444 11.8673333,65.1533333 11.8673333,65.1533333 C11.8673333,65.1533333 12.621,65.9143333 12.621,65.9143333" id="path68" fill="#FFFFFF" fill-rule="nonzero"></path>
                        <path d="M17.433,69.0582222 C17.433,69.0582222 16.41,68.2863333 16.41,68.2863333 C16.41,68.2863333 15.8673333,69.006 15.8673333,69.006 C15.8673333,69.006 18.7794444,71.2031111 18.7794444,71.2031111 C18.7794444,71.2031111 19.3227778,70.4834444 19.3227778,70.4834444 C19.3227778,70.4834444 18.2881111,69.7026667 18.2881111,69.7026667 C18.2881111,69.7026667 20.6037778,66.6324444 20.6037778,66.6324444 C20.6037778,66.6324444 19.7495556,65.988 19.7495556,65.988 C19.7495556,65.988 17.433,69.0582222 17.433,69.0582222" id="path70" fill="#FFFFFF" fill-rule="nonzero"></path>
                        <path d="M23.9423333,71.0793333 C23.9423333,71.0793333 22.4242222,70.2144444 22.4242222,70.2144444 C22.4242222,70.2144444 22.9823333,69.235 22.9823333,69.235 C22.9823333,69.235 24.6774444,70.2012222 24.6774444,70.2012222 C24.6774444,70.2012222 25.1133333,69.4365556 25.1133333,69.4365556 C25.1133333,69.4365556 22.4877778,67.9401111 22.4877778,67.9401111 C22.4877778,67.9401111 20.137,72.0645556 20.137,72.0645556 C20.137,72.0645556 22.6762222,73.5121111 22.6762222,73.5121111 C22.6762222,73.5121111 23.1121111,72.7474444 23.1121111,72.7474444 C23.1121111,72.7474444 21.5032222,71.8298889 21.5032222,71.8298889 C21.5032222,71.8298889 21.9917778,70.9732222 21.9917778,70.9732222 C21.9917778,70.9732222 23.5092222,71.8381111 23.5092222,71.8381111 C23.5092222,71.8381111 23.9423333,71.0793333 23.9423333,71.0793333" id="path72" fill="#FFFFFF" fill-rule="nonzero"></path>
                        <path d="M29.57,72.0705556 C30.2601111,72.2947778 30.4443333,73.0733333 30.1567778,73.9571111 C29.8932222,74.7678889 29.2853333,75.3404444 28.5816667,75.1117778 C27.8777778,74.8834444 27.7054444,74.0712222 27.9797778,73.2276667 C28.2563333,72.3763333 28.8802222,71.8463333 29.564,72.0683333 C29.564,72.0683333 29.5695556,72.0705556 29.5695556,72.0705556 L29.57,72.0705556 Z M29.7873333,71.2446667 C28.4537778,70.8113333 27.3351111,71.566 26.9164444,72.852 C26.4767778,74.2053333 27.0185556,75.4997778 28.3447778,75.9313333 C29.7313333,76.3816667 30.8261111,75.5895556 31.2311111,74.3436667 C31.7148889,72.8563333 31.1133333,71.6758889 29.794,71.2472222 C29.794,71.2472222 29.7873333,71.245 29.7873333,71.245" id="path74" fill="#FFFFFF" fill-rule="nonzero"></path>
                        <path d="M32.3181111,76.9294444 C32.3181111,76.9294444 35.1728889,77.4113333 35.1728889,77.4113333 C35.1728889,77.4113333 35.3193333,76.543 35.3193333,76.543 C35.3193333,76.543 33.5196667,76.2393333 33.5196667,76.2393333 C33.5196667,76.2393333 33.7007778,75.1697778 33.7007778,75.1697778 C33.7007778,75.1697778 35.382,75.4538889 35.382,75.4538889 C35.382,75.4538889 35.5268889,74.5924444 35.5268889,74.5924444 C35.5268889,74.5924444 33.8458889,74.3086667 33.8458889,74.3086667 C33.8458889,74.3086667 34.164,72.4261111 34.164,72.4261111 C34.164,72.4261111 33.1083333,72.2478889 33.1083333,72.2478889 C33.1083333,72.2478889 32.3181111,76.9294444 32.3181111,76.9294444" id="path76" fill="#FFFFFF" fill-rule="nonzero"></path>
                        <path d="M40.0251111,76.7905556 C40.0251111,76.7905556 38.7438889,76.8113333 38.7438889,76.8113333 C38.7438889,76.8113333 38.7581111,77.7131111 38.7581111,77.7131111 C38.7581111,77.7131111 42.4065556,77.6538889 42.4065556,77.6538889 C42.4065556,77.6538889 42.3917778,76.7524444 42.3917778,76.7524444 C42.3917778,76.7524444 41.0956667,76.7732222 41.0956667,76.7732222 C41.0956667,76.7732222 41.0333333,72.9275556 41.0333333,72.9275556 C41.0333333,72.9275556 39.9631111,72.9448889 39.9631111,72.9448889 C39.9631111,72.9448889 40.0251111,76.7905556 40.0251111,76.7905556" id="path78" fill="#FFFFFF" fill-rule="nonzero"></path>
                        <path d="M46.4021111,74.3908889 C46.4021111,74.3908889 44.673,74.6393333 44.673,74.6393333 C44.673,74.6393333 44.5126667,73.5237778 44.5126667,73.5237778 C44.5126667,73.5237778 46.444,73.2465556 46.444,73.2465556 C46.444,73.2465556 46.319,72.3751111 46.319,72.3751111 C46.319,72.3751111 43.3277778,72.8044444 43.3277778,72.8044444 C43.3277778,72.8044444 44.0021111,77.5036667 44.0021111,77.5036667 C44.0021111,77.5036667 46.8963333,77.0882222 46.8963333,77.0882222 C46.8963333,77.0882222 46.7703333,76.217 46.7703333,76.217 C46.7703333,76.217 44.9372222,76.48 44.9372222,76.48 C44.9372222,76.48 44.7971111,75.5038889 44.7971111,75.5038889 C44.7971111,75.5038889 46.5258889,75.2557778 46.5258889,75.2557778 C46.5258889,75.2557778 46.4021111,74.3908889 46.4021111,74.3908889" id="path80" fill="#FFFFFF" fill-rule="nonzero"></path>
                        <path d="M50.8304444,71.3074444 C50.6228889,71.2712222 50.1586667,71.2863333 49.6096667,71.4418889 C48.0304444,71.8903333 47.4988889,73.1105556 47.8702222,74.4182222 C48.313,75.9766667 49.6688889,76.5218889 51.0506667,76.1294444 C51.5857778,75.9773333 51.9621111,75.7531111 52.1177778,75.6063333 C52.1177778,75.6063333 51.6695556,74.8547778 51.6695556,74.8547778 C51.4915556,75.0006667 51.2232222,75.1646667 50.8506667,75.2708889 C50.0381111,75.5016667 49.2604444,75.188 48.9694444,74.1646667 C48.7095556,73.2497778 49.0881111,72.52 50.0031111,72.2601111 C50.3218889,72.1697778 50.6783333,72.1344444 50.913,72.1627778 C50.913,72.1627778 50.8304444,71.3074444 50.8304444,71.3074444" id="path82" fill="#FFFFFF" fill-rule="nonzero"></path>
                        <path d="M54.8247778,74.6698889 C54.8247778,74.6698889 54.0645556,73.0041111 54.0645556,73.0041111 C54.0645556,73.0041111 55.673,72.2698889 55.673,72.2698889 C55.673,72.2698889 56.4333333,73.936 56.4333333,73.936 C56.4333333,73.936 57.4077778,73.4916667 57.4077778,73.4916667 C57.4077778,73.4916667 55.4367778,69.1722222 55.4367778,69.1722222 C55.4367778,69.1722222 54.4628889,69.6173333 54.4628889,69.6173333 C54.4628889,69.6173333 55.284,71.4178889 55.284,71.4178889 C55.284,71.4178889 53.6755556,72.1514444 53.6755556,72.1514444 C53.6755556,72.1514444 52.8544444,70.3508889 52.8544444,70.3508889 C52.8544444,70.3508889 51.8796667,70.795 51.8796667,70.795 C51.8796667,70.795 53.851,75.1146667 53.851,75.1146667 C53.851,75.1146667 54.8247778,74.6698889 54.8247778,74.6698889" id="path84" fill="#FFFFFF" fill-rule="nonzero"></path>
                        <path d="M56.6283333,68.5086667 C56.6283333,68.5086667 59.2642222,72.4578889 59.2642222,72.4578889 C59.2642222,72.4578889 60.3066667,71.7618889 60.3066667,71.7618889 C60.3066667,71.7618889 60.1615556,69.7672222 60.1615556,69.7672222 C60.1177778,69.195 60.0178889,68.5502222 59.902,67.9833333 C59.902,67.9833333 59.9143333,67.9755556 59.9143333,67.9755556 C60.2096667,68.532 60.5476667,69.0768889 60.9464444,69.6747778 C60.9464444,69.6747778 61.713,70.8231111 61.713,70.8231111 C61.713,70.8231111 62.5337778,70.2756667 62.5337778,70.2756667 C62.5337778,70.2756667 59.8972222,66.327 59.8972222,66.327 C59.8972222,66.327 58.9605556,66.9522222 58.9605556,66.9522222 C58.9605556,66.9522222 59.1334444,69.0387778 59.1334444,69.0387778 C59.1847778,69.6227778 59.2572222,70.3027778 59.3782222,70.8904444 C59.3782222,70.8904444 59.3552222,70.9062222 59.3552222,70.9062222 C59.0326667,70.3594444 58.6726667,69.795 58.2424444,69.1506667 C58.2424444,69.1506667 57.4491111,67.9613333 57.4491111,67.9613333 C57.4491111,67.9613333 56.6283333,68.5084444 56.6283333,68.5084444" id="path86" fill="#FFFFFF" fill-rule="nonzero"></path>
                        <path d="M63.0068889,64.645 C63.5372222,64.1502222 64.3066667,64.366 64.942,65.0453333 C65.5234444,65.6683333 65.7294444,66.4781111 65.1888889,66.983 C64.6491111,67.4875556 63.8544444,67.246 63.2491111,66.5971111 C62.6377778,65.9433333 62.4758889,65.1404444 63.0012222,64.6501111 C63.0012222,64.6501111 63.0067778,64.6445556 63.0067778,64.6445556 L63.0068889,64.645 Z M62.3888889,64.056 C61.3643333,65.0125556 61.4821111,66.3571111 62.4058889,67.3457778 C63.377,68.3857778 64.7715556,68.5385556 65.7917778,67.5867778 C66.857,66.5914444 66.6937778,65.2501111 65.7995556,64.2925556 C64.7327778,63.1495556 63.409,63.1042222 62.3938889,64.051 C62.3938889,64.051 62.3894444,64.0554444 62.3894444,64.0554444" id="path88" fill="#FFFFFF" fill-rule="nonzero"></path>
                        <path d="M68.57,64.6157778 C68.57,64.6157778 69.24,63.7804444 69.24,63.7804444 C69.24,63.7804444 66.2408889,61.3728889 66.2408889,61.3728889 C66.2408889,61.3728889 67.4228889,59.9007778 67.4228889,59.9007778 C67.4228889,59.9007778 66.7202222,59.3363333 66.7202222,59.3363333 C66.7202222,59.3363333 64.8676667,61.6431111 64.8676667,61.6431111 C64.8676667,61.6431111 68.57,64.6157778 68.57,64.6157778" id="path90" fill="#FFFFFF" fill-rule="nonzero"></path>
                        <path d="M68.9277778,57.3275556 C69.301,56.7055556 70.1004444,56.7011111 70.8982222,57.1797778 C71.6283333,57.6185556 72.05,58.3397778 71.6695556,58.9735556 C71.2884444,59.6078889 70.4582222,59.594 69.6975556,59.1373333 C68.9306667,58.6768889 68.5543333,57.9495556 68.924,57.3338889 C68.924,57.3338889 68.9273333,57.3272222 68.9273333,57.3272222 L68.9277778,57.3275556 Z M68.171,56.931 C67.45,58.1328889 67.9337778,59.3931111 69.0928889,60.0891111 C70.3133333,60.8214444 71.6963333,60.5838889 72.4144444,59.3883333 C73.1653333,58.1382222 72.6386667,56.8938889 71.5155556,56.2195556 C70.1747778,55.4144444 68.8894444,55.7354444 68.1753333,56.925 C68.1753333,56.925 68.1708889,56.9305556 68.1708889,56.9305556" id="path92" fill="#FFFFFF" fill-rule="nonzero"></path>
                        <path d="M71.5794444,50.3433333 C71.3523333,50.6094444 70.9775556,51.1347778 70.7454444,51.7177778 C70.4257778,52.5227778 70.3974444,53.1861111 70.6228889,53.7452222 C70.8513333,54.2982222 71.3382222,54.7495556 71.9861111,55.0068889 C73.4553333,55.582 74.7174444,54.8478889 75.2918889,53.4012222 C75.5177778,52.8314444 75.5807778,52.3486667 75.5677778,52.0938889 C75.5677778,52.0938889 74.68,51.9833333 74.68,51.9833333 C74.6947778,52.2695556 74.6563333,52.5955556 74.4642222,53.08 C74.1341111,53.9114444 73.411,54.3596667 72.4544444,53.9801111 C71.5385556,53.616 71.2364444,52.8295556 71.5615556,52.011 C71.6496667,51.7883333 71.7485556,51.6157778 71.8122222,51.5502222 C71.8122222,51.5502222 72.7428889,51.9193333 72.7428889,51.9193333 C72.7428889,51.9193333 72.4723333,52.6 72.4723333,52.6 C72.4723333,52.6 73.251,52.9093333 73.251,52.9093333 C73.251,52.9093333 73.9035556,51.2657778 73.9035556,51.2657778 C73.9035556,51.2657778 71.5794444,50.3433333 71.5794444,50.3433333" id="path94" fill="#FFFFFF" fill-rule="nonzero"></path>
                        <path d="M71.9741111,47.9722222 C71.9741111,47.9722222 73.8685556,48.4087778 73.8685556,48.4087778 C73.8685556,48.4087778 76.2635556,50.5004444 76.2635556,50.5004444 C76.2635556,50.5004444 76.5404444,49.2992222 76.5404444,49.2992222 C76.5404444,49.2992222 75.536,48.5763333 75.536,48.5763333 C75.2326667,48.3546667 75.01,48.195 74.7332222,48.0154444 C74.7332222,48.0154444 74.7354444,48.0012222 74.7354444,48.0012222 C75.0475556,47.965 75.3402222,47.9168889 75.7017778,47.8554444 C75.7017778,47.8554444 76.9213333,47.645 76.9213333,47.645 C76.9213333,47.645 77.1912222,46.4714444 77.1912222,46.4714444 C77.1912222,46.4714444 74.143,47.3735556 74.143,47.3735556 C74.143,47.3735556 72.2142222,46.9291111 72.2142222,46.9291111 C72.2142222,46.9291111 71.9735556,47.9722222 71.9735556,47.9722222" id="path96" fill="#FFFFFF" fill-rule="nonzero"></path>
                        <path d="M74.7823333,38.6491111 C75.3521111,38.6793333 76.0348889,38.7121111 76.7318889,38.7227778 C76.7318889,38.7227778 76.7318889,38.7376667 76.7318889,38.7376667 C76.1237778,38.8825556 75.4443333,39.0683333 74.885,39.2425556 C74.885,39.2425556 73.0232222,39.7902222 73.0232222,39.7902222 C73.0232222,39.7902222 73.0096667,40.6283333 73.0096667,40.6283333 C73.0096667,40.6283333 74.8323333,41.165 74.8323333,41.165 C75.3943333,41.3291111 76.0601111,41.4951111 76.685,41.6248889 C76.685,41.6248889 76.685,41.639 76.685,41.639 C76.0434444,41.6501111 75.3107778,41.6657778 74.7183333,41.6844444 C74.7183333,41.6844444 72.9145556,41.7467778 72.9145556,41.7467778 C72.9145556,41.7467778 72.8985556,42.7401111 72.8985556,42.7401111 C72.8985556,42.7401111 77.65,42.514 77.65,42.514 C77.65,42.514 77.673,41.0841111 77.673,41.0841111 C77.673,41.0841111 76.0887778,40.5936667 76.0887778,40.5936667 C75.5488889,40.4298889 74.9596667,40.279 74.4053333,40.1644444 C74.4053333,40.1644444 74.4053333,40.137 74.4053333,40.137 C74.9567778,40.0185556 75.5791111,39.8667778 76.1171111,39.7133333 C76.1171111,39.7133333 77.7028889,39.2387778 77.7028889,39.2387778 C77.7028889,39.2387778 77.7256667,37.8305556 77.7256667,37.8305556 C77.7256667,37.8305556 72.9826667,37.4997778 72.9826667,37.4997778 C72.9826667,37.4997778 72.9665556,38.5426667 72.9665556,38.5426667 C72.9665556,38.5426667 74.7823333,38.6491111 74.7823333,38.6491111" id="path98" fill="#FFFFFF" fill-rule="nonzero"></path>
                        <path d="M74.388,33.6453333 C74.388,33.6453333 75.4311111,33.7675556 75.4311111,33.7675556 C75.7212222,33.7971111 76.0896667,33.8201111 76.3722222,33.8437778 C76.3722222,33.8437778 76.3755556,33.8648889 76.3755556,33.8648889 C76.1084444,33.9741111 75.768,34.1112222 75.5091111,34.2261111 C75.5091111,34.2261111 74.5638889,34.68 74.5638889,34.68 C74.5638889,34.68 74.3878889,33.6453333 74.3878889,33.6453333 L74.388,33.6453333 Z M73.7983333,34.9672222 C73.7983333,34.9672222 72.6528889,35.4978889 72.6528889,35.4978889 C72.6528889,35.4978889 72.8393333,36.5952222 72.8393333,36.5952222 C72.8393333,36.5952222 77.2767778,34.3678889 77.2767778,34.3678889 C77.2767778,34.3678889 77.0415556,32.9867778 77.0415556,32.9867778 C77.0415556,32.9867778 72.1123333,32.325 72.1123333,32.325 C72.1123333,32.325 72.3064444,33.4636667 72.3064444,33.4636667 C72.3064444,33.4636667 73.5691111,33.6204444 73.5691111,33.6204444 C73.5691111,33.6204444 73.7983333,34.9672222 73.7983333,34.9672222" id="path100" fill="#FFFFFF" fill-rule="nonzero"></path>
                        <path d="M72.2628889,30.0176667 C72.2132222,29.9382222 72.1631111,29.7912222 72.1224444,29.6714444 C71.8015556,28.7461111 72.102,27.9668889 73.1766667,27.6027778 C74.1435556,27.275 74.7895556,27.6657778 75.0877778,28.5461111 C75.1627778,28.766 75.1955556,28.9265556 75.204,29.0201111 C75.204,29.0201111 72.2628889,30.0176667 72.2628889,30.0176667 L72.2628889,30.0176667 Z M76.2685556,29.7895556 C76.2091111,29.3936667 76.0771111,28.8954444 75.9051111,28.3883333 C75.6128889,27.5275556 75.2824444,27.0151111 74.8106667,26.6992222 C74.3057778,26.3493333 73.6456667,26.2463333 72.845,26.5174444 C71.9847778,26.8097778 71.4978889,27.3246667 71.2748889,27.8758889 C71.0431111,28.4831111 71.1026667,29.274 71.4012222,30.154 C71.5801111,30.6812222 71.742,31.0503333 71.8591111,31.2853333 C71.8591111,31.2853333 76.2685556,29.7895556 76.2685556,29.7895556" id="path102" fill="#FFFFFF" fill-rule="nonzero"></path>
                        <path d="M71.8591111,24.1291111 C71.8591111,24.1291111 71.6638889,23.7536667 71.6638889,23.7536667 C71.4178889,23.2787778 71.5092222,22.874 71.8781111,22.6825556 C72.2594444,22.485 72.5962222,22.6431111 72.8232222,23.0812222 C72.9428889,23.3127778 72.9983333,23.4503333 73.0153333,23.5291111 C73.0153333,23.5291111 71.8591111,24.1291111 71.8591111,24.1291111 L71.8591111,24.1291111 Z M74.1552222,24.1346667 C74.0532222,23.7998889 73.8566667,23.3298889 73.5911111,22.8174444 C73.2666667,22.1913333 72.9454444,21.8033333 72.5464444,21.6291111 C72.2128889,21.4773333 71.8477778,21.4917778 71.4604444,21.6931111 C70.9284444,21.9683333 70.7577778,22.5415556 70.8144444,22.9721111 C70.8144444,22.9721111 70.7958889,22.9821111 70.7958889,22.9821111 C70.5246667,22.7503333 70.1646667,22.7301111 69.7218889,22.8255556 C69.1722222,22.944 68.5577778,23.104 68.3533333,23.1072222 C68.3533333,23.1072222 68.8585556,24.0825556 68.8585556,24.0825556 C69.01,24.0835556 69.4091111,24.0111111 69.9902222,23.8605556 C70.5828889,23.7034444 70.8144444,23.8142222 71.0247778,24.2042222 C71.0247778,24.2042222 71.1713333,24.4857778 71.1713333,24.4857778 C71.1713333,24.4857778 69.5145556,25.3455556 69.5145556,25.3455556 C69.5145556,25.3455556 70.0043333,26.2901111 70.0043333,26.2901111 C70.0043333,26.2901111 74.1552222,24.1348889 74.1552222,24.1348889" id="path104" fill="#FFFFFF" fill-rule="nonzero"></path>
                        <path d="M68.0661111,19.143 C68.0661111,19.143 69.0553333,18.7917778 69.0553333,18.7917778 C69.3284444,18.6894444 69.6692222,18.5471111 69.9332222,18.4434444 C69.9332222,18.4434444 69.9454444,18.4604444 69.9454444,18.4604444 C69.7543333,18.6768889 69.5098889,18.9502222 69.3281111,19.1678889 C69.3281111,19.1678889 68.6812222,19.9927778 68.6812222,19.9927778 C68.6812222,19.9927778 68.0661111,19.143 68.0661111,19.143 L68.0661111,19.143 Z M68.1218889,20.5898889 C68.1218889,20.5898889 67.3291111,21.5722222 67.3291111,21.5722222 C67.3291111,21.5722222 67.9823333,22.4736667 67.9823333,22.4736667 C67.9823333,22.4736667 70.9763333,18.5133333 70.9763333,18.5133333 C70.9763333,18.5133333 70.1543333,17.3785556 70.1543333,17.3785556 C70.1543333,17.3785556 65.4412222,18.9653333 65.4412222,18.9653333 C65.4412222,18.9653333 66.1186667,19.9004444 66.1186667,19.9004444 C66.1186667,19.9004444 67.3205556,19.4831111 67.3205556,19.4831111 C67.3205556,19.4831111 68.1218889,20.5898889 68.1218889,20.5898889" id="path106" fill="#FFFFFF" fill-rule="nonzero"></path>
                        <path d="M65.4894444,17.3955556 C65.187,17.2954444 64.7672222,17.0731111 64.45,16.7433333 C64.108,16.3883333 64.0743333,16.0588889 64.3026667,15.839 C64.5102222,15.6387778 64.7936667,15.679 65.3315556,15.9524444 C66.0818889,16.326 66.7574444,16.3977778 67.2601111,15.914 C67.8434444,15.3521111 67.811,14.435 67.0386667,13.6331111 C66.6626667,13.2434444 66.3174444,13.0374444 66.0261111,12.9272222 C66.0261111,12.9272222 65.5732222,13.6951111 65.5732222,13.6951111 C65.7662222,13.7637778 66.1016667,13.9196667 66.4191111,14.2494444 C66.742,14.5848889 66.7413333,14.8982222 66.5687778,15.0642222 C66.3502222,15.2746667 66.0733333,15.1797778 65.4707778,14.8995556 C64.6661111,14.5105556 64.0824444,14.5351111 63.5955556,15.0041111 C63.0226667,15.5562222 62.9558889,16.4616667 63.8601111,17.4006667 C64.2358889,17.7905556 64.7143333,18.0733333 65.0065556,18.1637778 C65.0065556,18.1637778 65.4894444,17.3955556 65.4894444,17.3955556" id="path108" fill="#FFFFFF" fill-rule="nonzero"></path>
                        <path d="M62.3483333,11.7275556 C62.3483333,11.3401111 62.034,11.0257778 61.6462222,11.0257778 C61.2578889,11.0257778 60.9442222,11.3401111 60.9442222,11.7275556 C60.9442222,12.1152222 61.2578889,12.4298889 61.6462222,12.4298889 C62.034,12.4298889 62.3483333,12.1152222 62.3483333,11.7275556" id="path110" fill="#FFFFFF" fill-rule="nonzero"></path>
                        <path d="M19.0556667,11.7275556 C19.0556667,11.3401111 18.741,11.0261111 18.3536667,11.0261111 C17.9656667,11.0261111 17.6515556,11.3401111 17.6515556,11.7275556 C17.6515556,12.1152222 17.9656667,12.4302222 18.3536667,12.4302222 C18.741,12.4302222 19.0556667,12.1152222 19.0556667,11.7275556" id="path112" fill="#FFFFFF" fill-rule="nonzero"></path>
                        <path d="M23.2144444,21.1014444 C23.2144444,21.1014444 34.4266667,19.0997778 34.4266667,19.0997778 C34.4266667,19.0997778 33.2251111,17.6985556 33.2251111,17.6985556 C33.2251111,17.6985556 44.2374444,16.7385556 44.2374444,16.7385556 C44.2374444,16.7385556 43.1347778,15.8374444 43.1347778,15.8374444 C43.1347778,15.8374444 54.0005556,15.3606667 54.0005556,15.3606667 C54.0005556,15.3606667 39.6321111,13.9357778 39.6321111,13.9357778 C39.6321111,13.9357778 41.434,15.537 41.434,15.537 C41.434,15.537 30.022,16.6973333 30.022,16.6973333 C30.022,16.6973333 31.9237778,18.0985556 31.9237778,18.0985556 C31.9237778,18.0985556 23.2144444,21.1014444 23.2144444,21.1014444" id="path114" fill="#FFFFFF" fill-rule="nonzero"></path>
                        <path d="M21.9221111,11.3527778 C21.9221111,11.3527778 22.9085556,10.7744444 22.9085556,10.7744444 C22.9118889,10.9625556 22.936,11.1433333 22.981,11.3165556 C23.0264444,11.4891111 23.0932222,11.651 23.1813333,11.8018889 C23.319,12.0381111 23.5296667,12.1833333 23.8128889,12.2387778 C24.096,12.2944444 24.3691111,12.2454444 24.6336667,12.0903333 C24.9586667,11.8997778 25.2273333,11.5568889 25.4402222,11.0607778 C25.6532222,10.566 25.7866667,9.97577778 25.8405556,9.29166667 C25.8405556,9.29166667 25.6381111,9.26833333 25.6381111,9.26833333 C25.5952222,9.76844444 25.4711111,10.2132222 25.2651111,10.6031111 C25.0594444,10.9931111 24.7917778,11.2846667 24.4616667,11.4781111 C24.2774444,11.5857778 24.0714444,11.5955556 23.8427778,11.509 C23.6132222,11.422 23.4302222,11.2595556 23.2918889,11.0248889 C23.1926667,10.8554444 23.1353333,10.731 23.1193333,10.6501111 C23.1193333,10.6501111 23.5076667,10.423 23.5076667,10.423 C23.5076667,10.423 23.5791111,9.81444444 23.5791111,9.81444444 C23.5791111,9.81444444 23.0481111,10.1256667 23.0481111,10.1256667 C23.0481111,10.1256667 21.2264444,7.02111111 21.2264444,7.02111111 C21.2264444,7.02111111 20.8704444,7.703 20.8704444,7.703 C20.8704444,7.703 22.4862222,10.456 22.4862222,10.456 C22.4862222,10.456 21.9885556,10.7476667 21.9885556,10.7476667 C21.9885556,10.7476667 21.9221111,11.3527778 21.9221111,11.3527778" id="path116" fill="#FFFFFF" fill-rule="nonzero"></path>
                        <path d="M24.4896667,8.77477778 C24.4418889,8.58166667 24.3662222,8.37955556 24.2638889,8.16755556 C24.3306667,8.01955556 24.4084444,7.89255556 24.4956667,7.78611111 C24.5828889,7.68066667 24.6781111,7.60255556 24.7801111,7.55277778 C24.8881111,7.50044444 25.0056667,7.47588889 25.1332222,7.47777778 C25.2604444,7.48 25.3864444,7.509 25.5098889,7.56377778 C25.5098889,7.56377778 26.011,8.59711111 26.011,8.59711111 C26.011,8.59711111 24.5426667,9.30988889 24.5426667,9.30988889 C24.5545556,9.14522222 24.5371111,8.96722222 24.4896667,8.77477778 L24.4896667,8.77477778 Z M24.6194444,5.725 C24.6194444,5.725 25.1885556,6.90144444 25.1885556,6.90144444 C25.1476667,6.89144444 25.0896667,6.89588889 25.0153333,6.91744444 C24.9416667,6.93822222 24.8525556,6.97322222 24.7498889,7.02333333 C24.594,7.09955556 24.4578889,7.22111111 24.3426667,7.38833333 C24.2276667,7.55622222 24.141,7.754 24.0827778,7.982 C23.9451111,7.84911111 23.7958889,7.74933333 23.6355556,7.68122222 C23.4745556,7.61355556 23.3193333,7.589 23.17,7.60722222 C23.2702222,7.03844444 23.491,6.462 23.8333333,5.879 C23.8333333,5.879 23.434,5.70933333 23.434,5.70933333 C22.8503333,7.38455556 22.6421111,8.39277778 22.8084444,8.73633333 C22.8532222,8.83022222 22.9171111,8.89544444 22.9996667,8.93411111 C23.0821111,8.97288889 23.1577778,8.97577778 23.2266667,8.94188889 C23.3047778,8.90344444 23.3658889,8.83922222 23.4077778,8.74533333 C23.451,8.65211111 23.4714444,8.54155556 23.4707778,8.415 C23.61,8.41466667 23.7382222,8.45155556 23.856,8.52455556 C23.9737778,8.59833333 24.0632222,8.69911111 24.1262222,8.827 C24.1807778,8.94 24.2182222,9.04966667 24.239,9.15477778 C24.2604444,9.26066667 24.2628889,9.35922222 24.2467778,9.45244444 C24.2467778,9.45244444 23.1544444,9.981 23.1544444,9.981 C23.1544444,9.981 23.0363333,10.5828889 23.0363333,10.5828889 C23.0363333,10.5828889 27.0328889,8.64644444 27.0328889,8.64644444 C27.0328889,8.64644444 27.151,8.04455556 27.151,8.04455556 C27.151,8.04455556 26.5985556,8.31288889 26.5985556,8.31288889 C26.5985556,8.31288889 25.0284444,5.07233333 25.0284444,5.07233333 C25.0284444,5.07233333 24.6193333,5.72455556 24.6193333,5.72455556" id="path118" fill="#FFFFFF" fill-rule="nonzero"></path>
                        <path d="M26.6084444,8.86144444 C26.6084444,8.86144444 27.6818889,8.44222222 27.6818889,8.44222222 C27.6544444,8.62766667 27.6487778,8.80977778 27.6647778,8.98711111 C27.6815556,9.16377778 27.7202222,9.33355556 27.7835556,9.49577778 C27.8824444,9.748 28.0666667,9.92466667 28.3363333,10.0236667 C28.6062222,10.1218889 28.884,10.1162222 29.1684444,10.0046667 C29.52,9.86766667 29.8393333,9.57255556 30.1275556,9.11933333 C30.4163333,8.66555556 30.6418889,8.10711111 30.8037778,7.44255556 C30.8037778,7.44255556 30.6075556,7.38766667 30.6075556,7.38766667 C30.4862222,7.87277778 30.2941111,8.29066667 30.0302222,8.64188889 C29.7658889,8.99277778 29.4566667,9.23711111 29.101,9.376 C28.9028889,9.45322222 28.6982222,9.43122222 28.4868889,9.30866667 C28.2752222,9.18744444 28.1205556,9 28.0223333,8.74744444 C27.9507778,8.565 27.9143333,8.43311111 27.9104444,8.35277778 C27.9104444,8.35277778 28.3265556,8.19088889 28.3265556,8.19088889 C28.3265556,8.19088889 28.4906667,7.59655556 28.4906667,7.59655556 C28.4906667,7.59655556 27.9181111,7.81977778 27.9181111,7.81977778 C27.9181111,7.81977778 26.6087778,4.46577778 26.6087778,4.46577778 C26.6087778,4.46577778 26.1511111,5.08377778 26.1511111,5.08377778 C26.1511111,5.08377778 27.3111111,8.05633333 27.3111111,8.05633333 C27.3111111,8.05633333 26.771,8.26744444 26.771,8.26744444 C26.771,8.26744444 26.6084444,8.86144444 26.6084444,8.86144444" id="path120" fill="#FFFFFF" fill-rule="nonzero"></path>
                        <path d="M28.7353333,4.03277778 C28.7788889,3.95933333 28.8446667,3.90955556 28.9325556,3.88277778 C29.1102222,3.83022222 29.2988889,3.83877778 29.4985556,3.90933333 C29.6978889,3.97922222 29.8762222,4.10166667 30.0311111,4.27688889 C29.6707778,4.38488889 29.4348889,4.49788889 29.3224444,4.617 C29.1722222,4.62255556 29.039,4.59122222 28.925,4.52344444 C28.8115556,4.45511111 28.7378889,4.36466667 28.7026667,4.251 C28.6812222,4.17788889 28.6913333,4.10455556 28.7353333,4.03277778 L28.7353333,4.03277778 Z M32.1212222,6.97977778 C32.1212222,6.97977778 32.3313333,6.40122222 32.3313333,6.40122222 C32.3313333,6.40122222 31.628,6.61255556 31.628,6.61255556 C31.628,6.61255556 31.3001111,5.52 31.3001111,5.52 C31.3001111,5.52 29.7744444,5.97788889 29.7744444,5.97788889 C29.6547778,6.01388889 29.5397778,5.99877778 29.4285556,5.93255556 C29.3174444,5.86644444 29.2427778,5.76755556 29.2034444,5.63744444 C29.1612222,5.49633333 29.1864444,5.35777778 29.2786667,5.22144444 C29.3713333,5.085 29.5042222,4.99144444 29.6762222,4.93977778 C29.6762222,4.93977778 30.1567778,4.83811111 30.1567778,4.83811111 C30.1501111,4.87466667 30.1467778,4.90955556 30.1456667,4.94422222 C30.1445556,4.97822222 30.1478889,5.00844444 30.1556667,5.034 C30.1858889,5.13444444 30.2583333,5.20533333 30.3738889,5.24977778 C30.4907778,5.296 30.6157778,5.29788889 30.7518889,5.25755556 C30.8926667,5.21466667 30.9962222,5.12588889 31.0633333,4.98855556 C31.1301111,4.85122222 31.1414444,4.70766667 31.0954444,4.55611111 C31.0658889,4.45655556 31.0022222,4.37411111 30.9067778,4.30922222 C30.8092222,4.24366667 30.6951111,4.20844444 30.5616667,4.20277778 C30.5616667,4.20277778 31.1786667,2.99555556 31.1786667,2.99555556 C31.1786667,2.99555556 30.7965556,2.85444444 30.7965556,2.85444444 C30.7965556,2.85444444 30.4721111,3.76144444 30.4721111,3.76144444 C30.2768889,3.604 30.0643333,3.50133333 29.835,3.45033333 C29.6054444,3.39955556 29.3893333,3.40588889 29.1848889,3.46633333 C28.9351111,3.542 28.709,3.701 28.5074444,3.94288889 C28.3048889,4.18511111 28.2277778,4.38666667 28.2762222,4.54855556 C28.2935556,4.60588889 28.3168889,4.65822222 28.3455556,4.70666667 C28.3738889,4.75488889 28.4082222,4.79833333 28.447,4.83866667 C28.1871111,4.93877778 27.989,5.08811111 27.852,5.28622222 C27.7153333,5.484 27.675,5.67711111 27.7323333,5.86544444 C27.7521111,5.93311111 27.8054444,6.01033333 27.8904444,6.09566667 C27.9761111,6.181 28.0863333,6.26955556 28.2221111,6.35955556 C28.2221111,6.35955556 28.63,5.72466667 28.63,5.72466667 C28.5373333,5.68333333 28.4607778,5.63833333 28.3997778,5.58855556 C28.3388889,5.53822222 28.3017778,5.48966667 28.2873333,5.44211111 C28.2655556,5.36966667 28.2851111,5.29377778 28.3443333,5.21722222 C28.4025556,5.13877778 28.4875556,5.08366667 28.5978889,5.05033333 C28.5978889,5.05033333 28.9848889,5.19011111 28.9848889,5.19011111 C28.8894444,5.33277778 28.8296667,5.48688889 28.8041111,5.65066667 C28.7786667,5.81533333 28.789,5.97566667 28.836,6.13277778 C28.8913333,6.31555556 29.0262222,6.44655556 29.24,6.52466667 C29.4548889,6.60277778 29.6873333,6.60433333 29.9376667,6.52911111 C29.9376667,6.52911111 30.8384444,6.25833333 30.8384444,6.25833333 C30.8384444,6.25833333 31.0018889,6.80155556 31.0018889,6.80155556 C31.0018889,6.80155556 28.0475556,7.68888889 28.0475556,7.68888889 C28.0475556,7.68888889 27.8375556,8.26777778 27.8375556,8.26777778 C27.8375556,8.26777778 32.121,6.98044444 32.121,6.98044444" id="path122" fill="#FFFFFF" fill-rule="nonzero"></path>
                        <path d="M32.4628889,6.13955556 C32.5593333,6.01922222 32.6918889,5.93544444 32.8604444,5.88877778 C32.8604444,5.88877778 32.9838889,6.57288889 32.9838889,6.57288889 C32.9974444,6.64755556 32.9927778,6.71688889 32.9715556,6.77888889 C32.9498889,6.84066667 32.9177778,6.87555556 32.8745556,6.88344444 C32.7523333,6.90611111 32.6402222,6.88122222 32.5394444,6.811 C32.4386667,6.74044444 32.3763333,6.64377778 32.354,6.52088889 C32.3296667,6.38644444 32.3662222,6.25922222 32.4628889,6.13955556 Z M33.7536667,6.685 C33.7536667,6.685 35.7224444,6.32722222 35.7224444,6.32722222 C35.7224444,6.32722222 35.9958889,5.776 35.9958889,5.776 C35.9958889,5.776 35.3933333,5.88566667 35.3933333,5.88566667 C35.3933333,5.88566667 34.7511111,2.34522222 34.7511111,2.34522222 C34.7511111,2.34522222 34.1788889,2.86522222 34.1788889,2.86522222 C34.1788889,2.86522222 34.3694444,3.91244444 34.3694444,3.91244444 C34.3694444,3.91244444 33.2058889,4.12411111 33.2058889,4.12411111 C33.2058889,4.12411111 33.1332222,3.72088889 33.1332222,3.72088889 C33.1164444,3.62988889 33.0781111,3.55844444 33.0194444,3.50555556 C32.9596667,3.452 32.8985556,3.43211111 32.8333333,3.44344444 C32.6408889,3.47811111 32.4481111,3.64655556 32.2566667,3.94644444 C32.0647778,4.24844444 31.9876667,4.50266667 32.0257778,4.71177778 C32.0357778,4.76533333 32.0714444,4.80688889 32.1351111,4.83688889 C32.1986667,4.86644444 32.2673333,4.875 32.3426667,4.86166667 C32.3426667,4.86166667 32.6628889,4.80255556 32.6628889,4.80255556 C32.6628889,4.80255556 32.8015556,5.56633333 32.8015556,5.56633333 C32.497,5.71122222 32.2632222,5.90577778 32.1013333,6.15088889 C31.9394444,6.39688889 31.8808889,6.64255556 31.9265556,6.88944444 C31.9536667,7.045 32.0415556,7.16633333 32.1864444,7.25388889 C32.3325556,7.34111111 32.4941111,7.36877778 32.6702222,7.33666667 C32.9114444,7.29355556 33.1287778,7.11933333 33.3218889,6.81511111 C33.5148889,6.51144444 33.5885556,6.23088889 33.542,5.97322222 C33.542,5.97322222 33.308,4.68633333 33.308,4.68633333 C33.308,4.68633333 34.4707778,4.47522222 34.4707778,4.47522222 C34.4707778,4.47522222 34.748,6.00222222 34.748,6.00222222 C34.748,6.00222222 33.9866667,6.14077778 33.9866667,6.14077778 C33.9866667,6.14077778 33.7536667,6.685 33.7536667,6.685" id="path124" fill="#FFFFFF" fill-rule="nonzero"></path>
                        <path d="M34.7511111,8.33766667 C34.9205556,8.46233333 35.1104444,8.51211111 35.3208889,8.48566667 C35.537,8.45822222 35.7294444,8.37577778 35.8982222,8.23688889 C36.0676667,8.09766667 36.1857778,7.92155556 36.2522222,7.71088889 C36.2522222,7.71088889 36.1162222,7.60411111 36.1162222,7.60411111 C36.0513333,7.70577778 35.976,7.78611111 35.8906667,7.84722222 C35.8053333,7.90744444 35.7164444,7.943 35.6247778,7.95433333 C35.4371111,7.97788889 35.2666667,7.93011111 35.1152222,7.81166667 C34.9634444,7.692 34.8758889,7.53822222 34.8522222,7.349 C34.8393333,7.246 34.8566667,7.13033333 34.9035556,7.00311111 C34.9504444,6.87655556 35.0266667,6.74555556 35.1294444,6.61222222 C35.1294444,6.61222222 34.9514444,6.502 34.9514444,6.502 C34.7675556,6.70011111 34.6323333,6.91877778 34.5473333,7.155 C34.4607778,7.39055556 34.4323333,7.623 34.4604444,7.85011111 C34.4853333,8.05066667 34.5823333,8.21255556 34.7511111,8.33766667" id="path126" fill="#FFFFFF" fill-rule="nonzero"></path>
                        <path d="M36.2934444,3.62988889 C36.3902222,3.53577778 36.5117778,3.48344444 36.6594444,3.47244444 C36.8597778,3.45666667 37.0767778,3.48977778 37.3095556,3.57133333 C37.5428889,3.65222222 37.7741111,3.77633333 38.005,3.94522222 C37.8764444,4.12311111 37.7337778,4.26555556 37.5778889,4.36977778 C37.4216667,4.47433333 37.2651111,4.53222222 37.1073333,4.54422222 C36.8575556,4.56222222 36.6412222,4.51433333 36.4578889,4.4 C36.274,4.28533333 36.1756667,4.13822222 36.1624444,3.95933333 C36.1535556,3.83433333 36.1971111,3.725 36.2934444,3.62988889 L36.2934444,3.62988889 Z M39.067,6.08122222 C39.067,6.08122222 39.3967778,5.56222222 39.3967778,5.56222222 C39.3967778,5.56222222 38.7847778,5.60755556 38.7847778,5.60755556 C38.7847778,5.60755556 38.5171111,2.01666667 38.5171111,2.01666667 C38.5171111,2.01666667 37.8956667,2.474 37.8956667,2.474 C37.8956667,2.474 37.9571111,3.29288889 37.9571111,3.29288889 C37.7892222,3.17388889 37.6185556,3.08444444 37.4446667,3.02611111 C37.2711111,2.96755556 37.1054444,2.94422222 36.9476667,2.95622222 C36.6437778,2.97822222 36.3473333,3.14266667 36.0588889,3.44822222 C35.7694444,3.755 35.6358889,4.046 35.6566667,4.32377778 C35.6736667,4.55744444 35.788,4.75144444 35.9981111,4.90488889 C36.2096667,5.05955556 36.4566667,5.12533333 36.7391111,5.10455556 C36.9895556,5.086 37.2288889,4.99933333 37.4575556,4.84566667 C37.6862222,4.692 37.8758889,4.48688889 38.0266667,4.22955556 C38.0266667,4.22955556 38.1328889,5.65633333 38.1328889,5.65633333 C38.1328889,5.65633333 35.5162222,5.85133333 35.5162222,5.85133333 C35.5162222,5.85133333 35.1857778,6.36977778 35.1857778,6.36977778 C35.1857778,6.36977778 39.067,6.08122222 39.067,6.08122222" id="path128" fill="#FFFFFF" fill-rule="nonzero"></path>
                        <path d="M38.6717778,6.12 C38.6717778,6.12 39.8223333,6.10144444 39.8223333,6.10144444 C39.7313333,6.26611111 39.6628889,6.43522222 39.6163333,6.60688889 C39.57,6.77888889 39.5483333,6.95244444 39.5511111,7.12655556 C39.5555556,7.399 39.6666667,7.628 39.8856667,7.81544444 C40.1038889,8.00155556 40.3665556,8.09288889 40.6717778,8.08822222 C41.0494444,8.08155556 41.451,7.91688889 41.8805556,7.59177778 C42.3085556,7.26577778 42.7145556,6.81955556 43.0988889,6.25255556 C43.0988889,6.25255556 42.9332222,6.13288889 42.9332222,6.13288889 C42.6506667,6.54488889 42.3237778,6.87022222 41.9545556,7.10766667 C41.5838889,7.34488889 41.2094444,7.46611111 40.8264444,7.47311111 C40.6134444,7.47533333 40.4298889,7.38366667 40.2733333,7.19622222 C40.1174444,7.00722222 40.0371111,6.77822222 40.0326667,6.50611111 C40.0293333,6.31022222 40.0404444,6.17388889 40.067,6.09766667 C40.067,6.09766667 40.5148889,6.08988889 40.5148889,6.08988889 C40.5148889,6.08988889 40.8755556,5.59155556 40.8755556,5.59155556 C40.8755556,5.59155556 40.2613333,5.60266667 40.2613333,5.60266667 C40.2613333,5.60266667 40.2027778,2.00433333 40.2027778,2.00433333 C40.2027778,2.00433333 39.5577778,2.42444444 39.5577778,2.42444444 C39.5577778,2.42444444 39.6096667,5.61277778 39.6096667,5.61277778 C39.6096667,5.61277778 39.0302222,5.62166667 39.0302222,5.62166667 C39.0302222,5.62166667 38.6717778,6.11966667 38.6717778,6.11966667" id="path130" fill="#FFFFFF" fill-rule="nonzero"></path>
                        <path d="M43.8553333,6.28122222 C43.8553333,6.28122222 44.2556667,5.81355556 44.2556667,5.81355556 C44.2556667,5.81355556 43.644,5.77222222 43.644,5.77222222 C43.644,5.77222222 43.8837778,2.18111111 43.8837778,2.18111111 C43.8837778,2.18111111 43.2043333,2.54677778 43.2043333,2.54677778 C43.2043333,2.54677778 43.085,4.34266667 43.085,4.34266667 C43.085,4.34266667 41.8188889,4.25822222 41.8188889,4.25822222 C41.7038889,4.25044444 41.6115556,4.19211111 41.5391111,4.08377778 C41.4676667,3.97444444 41.4355556,3.84722222 41.4462222,3.70044444 C41.4604444,3.47711111 41.5476667,3.24844444 41.7051111,3.01633333 C41.8626667,2.78388889 42.0796667,2.56655556 42.3548889,2.36655556 C42.3548889,2.36655556 42.1234444,2.14611111 42.1234444,2.14611111 C41.7181111,2.50144444 41.4008889,2.83844444 41.1737778,3.15622222 C40.948,3.47522222 40.8264444,3.75144444 40.8106667,3.98488889 C40.7962222,4.21922222 40.8544444,4.42488889 40.9876667,4.60344444 C41.1202222,4.78166667 41.2877778,4.87744444 41.4887778,4.89066667 C41.4887778,4.89066667 43.0421111,4.99433333 43.0421111,4.99433333 C43.0421111,4.99433333 42.9926667,5.72911111 42.9926667,5.72911111 C42.9926667,5.72911111 40.4188889,5.55777778 40.4188889,5.55777778 C40.4188889,5.55777778 40.0194444,6.02488889 40.0194444,6.02488889 C40.0194444,6.02488889 43.8553333,6.28122222 43.8553333,6.28122222" id="path132" fill="#FFFFFF" fill-rule="nonzero"></path>
                        <path d="M46.4081111,4.19744444 C46.5007778,4.13577778 46.6037778,4.11655556 46.7164444,4.13955556 C46.8821111,4.17322222 47.0386667,4.25166667 47.1885556,4.37766667 C47.3378889,4.50266667 47.4654444,4.662 47.5706667,4.856 C47.4762222,4.96444444 47.3675556,5.04311111 47.2427778,5.09222222 C47.1193333,5.142 47.0015556,5.15555556 46.8891111,5.13222222 C46.6805556,5.09033333 46.5121111,5.00377778 46.3838889,4.87122222 C46.2547778,4.73955556 46.205,4.60255556 46.234,4.45855556 C46.2566667,4.34611111 46.3145556,4.25955556 46.4081111,4.19744444 L46.4081111,4.19744444 Z M49.3637778,7.30677778 C49.3637778,7.30677778 49.8223333,6.90044444 49.8223333,6.90044444 C49.8223333,6.90044444 47.9001111,6.509 47.9001111,6.509 C47.9001111,6.509 48.12,5.42577778 48.12,5.42577778 C48.177,5.53288889 48.2522222,5.62166667 48.3473333,5.69222222 C48.4415556,5.76222222 48.548,5.80977778 48.6657778,5.83333333 C48.8856667,5.87811111 49.1413333,5.76188889 49.4333333,5.48411111 C49.7246667,5.20655556 49.9023333,4.90955556 49.9658889,4.594 C49.9955556,4.44944444 49.9958889,4.28822222 49.967,4.10988889 C49.9395556,3.931 49.8841111,3.74677778 49.7991111,3.55711111 C49.7991111,3.55711111 49.1776667,3.93222222 49.1776667,3.93222222 C49.3026667,4.11933333 49.3886667,4.30011111 49.4396667,4.47744444 C49.4907778,4.65444444 49.5021111,4.81255556 49.4737778,4.95177778 C49.446,5.085 49.3802222,5.18955556 49.275,5.26644444 C49.1704444,5.342 49.0554444,5.36722222 48.932,5.34266667 C48.8192222,5.31933333 48.7042222,5.25222222 48.5871111,5.142 C48.4702222,5.03244444 48.3637778,4.88722222 48.2661111,4.70522222 C48.2661111,4.70522222 48.6166667,2.982 48.6166667,2.982 C48.6166667,2.982 47.8957778,3.25388889 47.8957778,3.25388889 C47.8957778,3.25388889 47.7168889,4.13544444 47.7168889,4.13544444 C47.6444444,4.02611111 47.5534444,3.93577778 47.4456667,3.86366667 C47.3376667,3.79177778 47.2207778,3.743 47.0923333,3.71655556 C46.8516667,3.66744444 46.5823333,3.75711111 46.2856667,3.98677778 C45.9886667,4.21577778 45.8128889,4.46611111 45.7572222,4.73855556 C45.7194444,4.92566667 45.7661111,5.10166667 45.8954444,5.26766667 C46.0271111,5.43333333 46.2006667,5.53788889 46.4207778,5.583 C46.5917778,5.61788889 46.7723333,5.599 46.9615556,5.52633333 C47.1527778,5.45288889 47.3328889,5.336 47.5052222,5.17511111 C47.5052222,5.17511111 47.2595556,6.37888889 47.2595556,6.37888889 C47.2595556,6.37888889 45.2482222,5.96944444 45.2482222,5.96944444 C45.2482222,5.96944444 44.7896667,6.376 44.7896667,6.376 C44.7896667,6.376 49.3632222,7.30677778 49.3632222,7.30677778" id="path134" fill="#FFFFFF" fill-rule="nonzero"></path>
                        <path d="M49.1253333,3.11555556 C49.1253333,3.11555556 49.132,3.11666667 49.132,3.11666667 C49.132,3.11666667 49.1353333,3.10888889 49.1353333,3.10888889 C49.1353333,3.10888889 49.1275556,3.10777778 49.1275556,3.10777778 C49.1275556,3.10777778 49.1253333,3.11555556 49.1253333,3.11555556" id="path136" fill="#FFFFFF" fill-rule="nonzero"></path>
                        <path d="M51.1337778,5.81288889 C51.1337778,5.81288889 52.2982222,6.211 52.2982222,6.211 C52.2982222,6.211 51.7945556,7.68066667 51.7945556,7.68066667 C51.7945556,7.68066667 50.6304444,7.28222222 50.6304444,7.28222222 C50.6304444,7.28222222 51.1337778,5.81288889 51.1337778,5.81288889 L51.1337778,5.81288889 Z M52.4846667,8.43777778 C52.4846667,8.43777778 52.9923333,8.09033333 52.9923333,8.09033333 C52.9923333,8.09033333 52.4134444,7.89255556 52.4134444,7.89255556 C52.4134444,7.89255556 53.5791111,4.48688889 53.5791111,4.48688889 C53.5791111,4.48688889 52.8266667,4.662 52.8266667,4.662 C52.8266667,4.662 52.5095556,5.59144444 52.5095556,5.59144444 C52.5095556,5.59144444 51.3461111,5.19311111 51.3461111,5.19311111 C51.3461111,5.19311111 51.4781111,4.806 51.4781111,4.806 C51.5085556,4.71877778 51.5107778,4.63744444 51.4836667,4.56122222 C51.4581111,4.486 51.4133333,4.43811111 51.3525556,4.417 C51.1557778,4.34933333 50.8943333,4.40466667 50.569,4.58111111 C50.2426667,4.75811111 50.0448889,4.94955556 49.974,5.15622222 C49.9532222,5.21788889 49.9611111,5.28155556 50.0001111,5.34644444 C50.038,5.41166667 50.0936667,5.45666667 50.1657778,5.48122222 C50.1657778,5.48122222 50.5135556,5.60033333 50.5135556,5.60033333 C50.5135556,5.60033333 50.0108889,7.07022222 50.0108889,7.07022222 C50.0108889,7.07022222 49.198,6.79144444 49.198,6.79144444 C49.198,6.79144444 48.6895556,7.13888889 48.6895556,7.13888889 C48.6895556,7.13888889 52.4845556,8.43777778 52.4845556,8.43777778" id="path138" fill="#FFFFFF" fill-rule="nonzero"></path>
                        <path d="M50.6683333,9.71877778 C50.7564444,9.909 50.8988889,10.0444444 51.097,10.1237778 C51.2985556,10.2046667 51.5085556,10.2261111 51.7246667,10.1864444 C51.9394444,10.1471111 52.1277778,10.051 52.2884444,9.89922222 C52.2884444,9.89922222 52.2204444,9.73922222 52.2204444,9.73922222 C52.1152222,9.79688889 52.0103333,9.83177778 51.9064444,9.84222222 C51.8012222,9.85355556 51.7051111,9.84188889 51.6197778,9.80688889 C51.4418889,9.73577778 51.3155556,9.61133333 51.2393333,9.434 C51.1637778,9.25544444 51.1608889,9.07844444 51.2315556,8.90111111 C51.2715556,8.80466667 51.3414444,8.71211111 51.4447778,8.62422222 C51.5474444,8.53633333 51.6775556,8.45855556 51.8341111,8.39244444 C51.8341111,8.39244444 51.7304444,8.20977778 51.7304444,8.20977778 C51.4734444,8.29477778 51.2507778,8.41977778 51.0605556,8.58455556 C50.8724444,8.75022222 50.7348889,8.93788889 50.6485556,9.15088889 C50.5745556,9.33822222 50.5805556,9.52722222 50.6681111,9.71877778" id="path140" fill="#FFFFFF" fill-rule="nonzero"></path>
                        <path d="M56.1457778,10.1303333 C56.1457778,10.1303333 56.6862222,9.84655556 56.6862222,9.84655556 C56.6862222,9.84655556 56.1344444,9.58577778 56.1344444,9.58577778 C56.1344444,9.58577778 57.6714444,6.33355556 57.6714444,6.33355556 C57.6714444,6.33355556 56.9032222,6.42044444 56.9032222,6.42044444 C56.9032222,6.42044444 56.1684444,7.977 56.1684444,7.977 C56.1684444,7.977 55.1315556,7.48655556 55.1315556,7.48655556 C55.3605556,7.42455556 55.5602222,7.33222222 55.7313333,7.20688889 C55.9016667,7.08155556 56.0273333,6.93477778 56.107,6.76755556 C56.1926667,6.58522222 56.1977778,6.39655556 56.1212222,6.19933333 C56.0434444,6.00466667 55.9095556,5.86077778 55.7171111,5.76944444 C55.3958889,5.61788889 54.9952222,5.65733333 54.5158889,5.88633333 C54.0358889,6.11588889 53.5772222,6.48722222 53.1426667,7.00033333 C53.1426667,7.00033333 53.3287778,7.17922222 53.3287778,7.17922222 C53.6371111,6.817 53.9646667,6.55688889 54.3083333,6.39811111 C54.6522222,6.24033333 54.9428889,6.21666667 55.1804444,6.32877778 C55.2834444,6.37822222 55.353,6.45888889 55.387,6.57222222 C55.4216667,6.68566667 55.4113333,6.79877778 55.3577778,6.91277778 C55.2755556,7.08533333 55.1123333,7.23811111 54.8651111,7.37066667 C54.6182222,7.50233333 54.3181111,7.59844444 53.9624444,7.66144444 C53.9624444,7.66144444 55.8875556,8.57133333 55.8875556,8.57133333 C55.8875556,8.57133333 55.5404444,9.30577778 55.5404444,9.30577778 C55.5404444,9.30577778 52.5114444,7.87433333 52.5114444,7.87433333 C52.5114444,7.87433333 51.97,8.15811111 51.97,8.15811111 C51.97,8.15811111 56.1457778,10.1303333 56.1457778,10.1303333" id="path142" fill="#FFFFFF" fill-rule="nonzero"></path>
                        <path d="M57.2956667,10.8573333 C57.2956667,10.8573333 57.8616667,10.6132222 57.8616667,10.6132222 C57.8616667,10.6132222 57.3313333,10.3074444 57.3313333,10.3074444 C57.3313333,10.3074444 59.1294444,7.189 59.1294444,7.189 C59.1294444,7.189 58.3562222,7.216 58.3562222,7.216 C58.3562222,7.216 56.7627778,9.97955556 56.7627778,9.97955556 C56.7627778,9.97955556 56.2578889,9.68911111 56.2578889,9.68911111 C56.2578889,9.68911111 55.6913333,9.93255556 55.6913333,9.93255556 C55.6913333,9.93255556 57.2956667,10.8573333 57.2956667,10.8573333" id="path144" fill="#FFFFFF" fill-rule="nonzero"></path>
                        <path d="M18.08,35.1747778 C18.08,34.1388889 20.4934444,33.6113333 21.1243333,33.4501111 C23.8226667,32.759 26.6333333,32.4267778 29.4062222,32.2346667 C31.976,32.0557778 35.1023333,32.4746667 37.5694444,33.1187778 C36.12,35.0491111 34.7177778,36.9867778 33.7126667,39.1804444 C24.5577778,38.5773333 18.08,36.737 18.08,35.1747778 L18.08,35.1747778 Z M46.2872222,39.2008889 C45.2821111,37.0072222 43.88,35.0693333 42.4304444,33.1392222 C44.8975556,32.4951111 48.0238889,32.0762222 50.5936667,32.2551111 C53.3665556,32.4472222 56.1775556,32.7795556 58.8755556,33.4702222 C59.5064444,33.6317778 61.92,34.1593333 61.92,35.1952222 C61.92,36.7571111 55.4421111,38.5974444 46.2872222,39.2008889" id="path146" fill="#FFFFFF" fill-rule="nonzero"></path>
                        <path d="M18.08,35.1747778 C18.08,34.1388889 20.4934444,33.6113333 21.1243333,33.4501111 C23.8226667,32.759 26.6333333,32.4267778 29.4062222,32.2346667 C31.976,32.0557778 35.1023333,32.4746667 37.5694444,33.1187778 C36.12,35.0491111 34.7177778,36.9867778 33.7126667,39.1804444 C24.5577778,38.5773333 18.08,36.737 18.08,35.1747778 L18.08,35.1747778 Z M46.2872222,39.2008889 C45.2821111,37.0072222 43.88,35.0693333 42.4304444,33.1392222 C44.8975556,32.4951111 48.0238889,32.0762222 50.5936667,32.2551111 C53.3665556,32.4472222 56.1775556,32.7795556 58.8755556,33.4702222 C59.5064444,33.6317778 61.92,34.1593333 61.92,35.1952222 C61.92,36.7571111 55.4421111,38.5974444 46.2872222,39.2008889 Z" id="path148" stroke="#1F1917" stroke-width="0.83313306"></path>
                        <path d="M37.5725556,33.1287778 C36.1332222,35.0478889 34.741,37.012 33.7413333,39.1974444 C33.6647778,39.3656667 33.5847778,39.5322222 33.513,39.703 C33.01,40.8982222 32.6065556,42.1215556 32.3725556,43.3061111 C31.3181111,48.6295556 32.9983333,54.0317778 35.9428889,58.4554444 C37.6628889,61.0406667 39.4956667,63.6724444 39.9637778,66.8144444 C39.9637778,66.8144444 40.0645556,66.8144444 40.0645556,66.8144444 C40.5325556,63.6724444 42.3653333,61.0406667 44.085,58.4554444 C47.0292222,54.0317778 48.7102222,48.6295556 47.6563333,43.3061111 C47.421,42.1215556 47.0178889,40.8982222 46.5148889,39.703 C46.4431111,39.5332222 46.3634444,39.3678889 46.2872222,39.2008889 C45.2821111,37.0072222 43.88,35.0693333 42.4304444,33.1392222 C41.5253333,33.3751111 40.7061111,33.6412222 40.04,33.9203333 C39.3722222,33.6406667 38.5517778,33.3747778 37.645,33.1382222 C37.645,33.1382222 37.5801111,33.1225556 37.5725556,33.1293333" id="path150" fill="#FFFFFF" fill-rule="nonzero"></path>
                        <path d="M37.5725556,33.1287778 C36.1332222,35.0478889 34.741,37.012 33.7413333,39.1974444 C33.6647778,39.3656667 33.5847778,39.5322222 33.513,39.703 C33.01,40.8982222 32.6065556,42.1215556 32.3725556,43.3061111 C31.3181111,48.6295556 32.9983333,54.0317778 35.9428889,58.4554444 C37.6628889,61.0406667 39.4956667,63.6724444 39.9637778,66.8144444 C39.9637778,66.8144444 40.0645556,66.8144444 40.0645556,66.8144444 C40.5325556,63.6724444 42.3653333,61.0406667 44.085,58.4554444 C47.0292222,54.0317778 48.7102222,48.6295556 47.6563333,43.3061111 C47.421,42.1215556 47.0178889,40.8982222 46.5148889,39.703 C46.4431111,39.5332222 46.3634444,39.3678889 46.2872222,39.2008889 C45.2821111,37.0072222 43.88,35.0693333 42.4304444,33.1392222 C41.5253333,33.3751111 40.7061111,33.6412222 40.04,33.9203333 C39.3722222,33.6406667 38.5517778,33.3747778 37.645,33.1382222 C37.645,33.1382222 37.5801111,33.1225556 37.5725556,33.1293333 L37.5725556,33.1287778 Z" id="path152" stroke="#1F1917" stroke-width="0.83313306"></path>
                        <path d="M37.5694444,33.1187778 C35.1023333,32.4746667 31.976,32.0557778 29.4062222,32.2346667 C26.6333333,32.4267778 23.8226667,32.759 21.1243333,33.4501111 C20.5533333,33.5958889 18.5234444,34.0418889 18.142,34.8928889 C18.142,34.8928889 18.142,34.8928889 18.142,34.8928889 C20.2355556,27.216 29.227,21.4431111 40.0053333,21.4431111 C50.782,21.4431111 59.7744444,27.2154444 61.8666667,34.8922222 C61.8666667,34.8922222 61.8468889,34.8922222 61.8468889,34.8922222 C61.4418889,34.0551111 59.4415556,33.6151111 58.8755556,33.4702222 C56.1775556,32.7795556 53.3665556,32.4472222 50.5936667,32.2551111 C48.0238889,32.0762222 44.8975556,32.4951111 42.4304444,33.1392222 C41.5253333,33.3751111 40.7061111,33.6412222 40.04,33.9203333 C39.3722222,33.6406667 38.5517778,33.3747778 37.645,33.1382222 C37.645,33.1382222 37.5801111,33.1225556 37.5725556,33.1293333 L37.5692222,33.1193333 L37.5694444,33.1187778 Z" id="path154" fill="#781F19" fill-rule="nonzero"></path>
                        <path d="M37.5694444,33.1187778 C35.1023333,32.4746667 31.976,32.0557778 29.4062222,32.2346667 C26.6333333,32.4267778 23.8226667,32.759 21.1243333,33.4501111 C20.5533333,33.5958889 18.5234444,34.0418889 18.142,34.8928889 C18.142,34.8928889 18.142,34.8928889 18.142,34.8928889 C20.2355556,27.216 29.227,21.4431111 40.0053333,21.4431111 C50.782,21.4431111 59.7744444,27.2154444 61.8666667,34.8922222 C61.8666667,34.8922222 61.8468889,34.8922222 61.8468889,34.8922222 C61.4418889,34.0551111 59.4415556,33.6151111 58.8755556,33.4702222 C56.1775556,32.7795556 53.3665556,32.4472222 50.5936667,32.2551111 C48.0238889,32.0762222 44.8975556,32.4951111 42.4304444,33.1392222 C41.5253333,33.3751111 40.7061111,33.6412222 40.04,33.9203333 C39.3722222,33.6406667 38.5517778,33.3747778 37.645,33.1382222 C37.645,33.1382222 37.5801111,33.1225556 37.5725556,33.1293333" id="path156" stroke="#1F1917" stroke-width="0.83313306"></path>
                        <path d="M40.4008889,39.5646667 C40.2285556,39.3895556 40.0745556,39.195 40.0688889,39.0368889 C40.0688889,39.0368889 40.0468889,39.0368889 40.0468889,39.0368889 C40.0413333,39.2034444 39.8695556,39.4103333 39.6865556,39.5927778 C39.6865556,39.5927778 39.6865556,33.8611111 39.6865556,33.8611111 C39.6865556,33.8611111 39.8937778,33.8611111 39.8937778,33.8611111 C39.9426667,33.8808889 39.9926667,33.9004444 40.04,33.9203333 C40.0872222,33.9004444 40.1372222,33.8808889 40.1857778,33.8611111 C40.1857778,33.8611111 40.4008889,33.8611111 40.4008889,33.8611111 C40.4008889,33.8611111 40.4008889,39.5646667 40.4008889,39.5646667" id="path158" fill="#BDA345" fill-rule="nonzero"></path>
                        <path d="M40.4008889,39.5646667 C40.2285556,39.3895556 40.0745556,39.195 40.0688889,39.0368889 C40.0688889,39.0368889 40.0468889,39.0368889 40.0468889,39.0368889 C40.0413333,39.2034444 39.8695556,39.4103333 39.6865556,39.5927778 C39.6865556,39.5927778 39.6865556,33.8611111 39.6865556,33.8611111 C39.6865556,33.8611111 39.8937778,33.8611111 39.8937778,33.8611111 C39.9426667,33.8808889 39.9926667,33.9004444 40.04,33.9203333 C40.0872222,33.9004444 40.1372222,33.8808889 40.1857778,33.8611111 C40.1857778,33.8611111 40.4008889,33.8611111 40.4008889,33.8611111 C40.4008889,33.8611111 40.4008889,39.5646667 40.4008889,39.5646667 Z" id="path160" stroke="#1F1917" stroke-width="0.83313306"></path>
                        <path d="M40.1337778,43.6702222 C40.1337778,43.6702222 39.9778889,43.6702222 39.9778889,43.6702222 C39.1895556,43.6702222 38.531,43.103 38.3545556,42.3061111 C38.1258889,41.2755556 38.5974444,40.6166667 39.2975556,39.9517778 C39.4821111,39.7776667 40.0362222,39.3392222 40.0468889,39.0368889 C40.0468889,39.0368889 40.0688889,39.0368889 40.0688889,39.0368889 C40.08,39.3392222 40.6336667,39.7776667 40.8178889,39.9517778 C41.5183333,40.6166667 41.9902222,41.2755556 41.7615556,42.3061111 C41.5845556,43.103 40.9258889,43.6702222 40.1378889,43.6702222 C40.1378889,43.6702222 39.9823333,43.6702222 39.9823333,43.6702222 L40.1337778,43.6702222 L40.1337778,43.6702222 Z" id="path162" fill="#D9261C" fill-rule="nonzero"></path>
                        <path d="M40.1337778,43.6702222 C40.1337778,43.6702222 39.9778889,43.6702222 39.9778889,43.6702222 C39.1895556,43.6702222 38.531,43.103 38.3545556,42.3061111 C38.1258889,41.2755556 38.5974444,40.6166667 39.2975556,39.9517778 C39.4821111,39.7776667 40.0362222,39.3392222 40.0468889,39.0368889 C40.0468889,39.0368889 40.0688889,39.0368889 40.0688889,39.0368889 C40.08,39.3392222 40.6336667,39.7776667 40.8178889,39.9517778 C41.5183333,40.6166667 41.9902222,41.2755556 41.7615556,42.3061111 C41.5845556,43.103 40.9258889,43.6702222 40.1378889,43.6702222 C40.1378889,43.6702222 39.9823333,43.6702222 39.9823333,43.6702222" id="path164" stroke="#1F1917" stroke-width="0.83313306" stroke-linejoin="round"></path>
                        <path d="M38.3545556,42.3061111 C38.473,42.8422222 38.8125556,43.2686667 39.2604444,43.4944444 C39.2604444,43.4944444 39.3208889,43.5895556 39.3208889,43.5895556 C39.3208889,43.5895556 37.3596667,45.1788889 34.9064444,43.2708889 C35.0235556,43.3244444 35.9725556,42.5052222 36.0988889,42.4147778 C36.7488889,41.9495556 37.4362222,41.7608889 38.2458889,41.908 C38.2458889,41.908 38.3111111,42.0101111 38.3111111,42.0101111 C38.3211111,42.1057778 38.3313333,42.2031111 38.3545556,42.3061111" id="path166" fill="#D9261C" fill-rule="nonzero"></path>
                        <path d="M38.3545556,42.3061111 C38.473,42.8422222 38.8125556,43.2686667 39.2604444,43.4944444 C39.2604444,43.4944444 39.3208889,43.5895556 39.3208889,43.5895556 C39.3208889,43.5895556 37.3596667,45.1788889 34.9064444,43.2708889 C35.0235556,43.3244444 35.9725556,42.5052222 36.0988889,42.4147778 C36.7488889,41.9495556 37.4362222,41.7608889 38.2458889,41.908 C38.2458889,41.908 38.3111111,42.0101111 38.3111111,42.0101111 C38.3211111,42.1057778 38.3313333,42.2031111 38.3545556,42.3061111 L38.3545556,42.3061111 Z" id="path168" stroke="#1F1917" stroke-width="0.83313306" stroke-linejoin="round"></path>
                        <path d="M40.6758889,43.6068889 C40.6758889,43.6068889 40.7001111,43.5687778 40.7001111,43.5687778 C41.2254444,43.3716667 41.6288889,42.9038889 41.7615556,42.3061111 C41.793,42.1622222 41.8087778,42.0267778 41.8144444,41.896 C42.5864444,41.7778889 43.2484444,41.9663333 43.8748889,42.4147778 C44.0005556,42.5052222 44.9498889,43.3244444 45.067,43.2708889 C42.6137778,45.1788889 40.6758889,43.6068889 40.6758889,43.6068889" id="path170" fill="#D9261C" fill-rule="nonzero"></path>
                        <path d="M40.6758889,43.6068889 C40.6758889,43.6068889 40.7001111,43.5687778 40.7001111,43.5687778 C41.2254444,43.3716667 41.6288889,42.9038889 41.7615556,42.3061111 C41.793,42.1622222 41.8087778,42.0267778 41.8144444,41.896 C42.5864444,41.7778889 43.2484444,41.9663333 43.8748889,42.4147778 C44.0005556,42.5052222 44.9498889,43.3244444 45.067,43.2708889 C42.6137778,45.1788889 40.6758889,43.6068889 40.6758889,43.6068889 Z" id="path172" stroke="#1F1917" stroke-width="0.83313306" stroke-linejoin="round"></path>
                        <path d="M39.9558889,54.8551111 C39.9558889,54.8551111 34.913,47.1552222 39.3423333,43.7476667 C39.3423333,43.7476667 40.5684444,43.7476667 40.5684444,43.7476667 C44.9977778,47.1552222 39.9548889,54.8551111 39.9548889,54.8551111 L39.9558889,54.8551111 Z" id="path174" fill="#D9261C" fill-rule="nonzero"></path>
                        <path d="M39.9558889,54.8551111 C39.9558889,54.8551111 34.913,47.1552222 39.3423333,43.7476667 C39.3423333,43.7476667 40.5684444,43.7476667 40.5684444,43.7476667 C44.9977778,47.1552222 39.9548889,54.8551111 39.9548889,54.8551111" id="path176" stroke="#1F1917" stroke-width="0.83313306" stroke-linecap="round" stroke-linejoin="round"></path>
                        <path d="M38.8607778,52.8346667 C38.8607778,52.8346667 36.7413333,54.7016667 36.7413333,54.7016667 C36.9281111,54.537 36.8494444,53.4501111 36.8534444,53.2034444 C36.8623333,52.6125556 36.8292222,52.0207778 36.7703333,51.4324444 C36.6928889,50.6538889 36.5268889,49.8988889 36.4053333,49.1282222 C36.2137778,47.9121111 36.3596667,46.6387778 37.0321111,45.5845556 C37.5256667,44.8101111 38.4484444,44.1411111 39.2947778,43.7886667 C36.3662222,46.1004444 37.6887778,50.3268889 38.8607778,52.8346667" id="path178" fill="#D9261C" fill-rule="nonzero"></path>
                        <path d="M38.8607778,52.8346667 C38.8607778,52.8346667 36.7413333,54.7016667 36.7413333,54.7016667 C36.9281111,54.537 36.8494444,53.4501111 36.8534444,53.2034444 C36.8623333,52.6125556 36.8292222,52.0207778 36.7703333,51.4324444 C36.6928889,50.6538889 36.5268889,49.8988889 36.4053333,49.1282222 C36.2137778,47.9121111 36.3596667,46.6387778 37.0321111,45.5845556 C37.5256667,44.8101111 38.4484444,44.1411111 39.2947778,43.7886667 C36.3662222,46.1004444 37.6887778,50.3268889 38.8607778,52.8346667 L38.8607778,52.8346667 Z" id="path180" stroke="#1F1917" stroke-width="0.83313306" stroke-linejoin="round"></path>
                        <path d="M43.5294444,49.1282222 C43.4072222,49.8988889 43.2412222,50.6538889 43.1637778,51.4324444 C43.1047778,52.0207778 43.0707778,52.6125556 43.0808889,53.2034444 C43.0842222,53.4501111 43.0056667,54.537 43.1923333,54.7016667 C43.1923333,54.7016667 41.057,52.8201111 41.057,52.8201111 C42.2304444,50.303 43.548,46.0698889 40.5907778,43.7668889 C41.45,44.114 42.399,44.7952222 42.9023333,45.5845556 C43.5747778,46.6387778 43.7212222,47.9121111 43.5294444,49.1282222" id="path182" fill="#D9261C" fill-rule="nonzero"></path>
                        <path d="M43.5294444,49.1282222 C43.4072222,49.8988889 43.2412222,50.6538889 43.1637778,51.4324444 C43.1047778,52.0207778 43.0707778,52.6125556 43.0808889,53.2034444 C43.0842222,53.4501111 43.0056667,54.537 43.1923333,54.7016667 C43.1923333,54.7016667 41.057,52.8201111 41.057,52.8201111 C42.2304444,50.303 43.548,46.0698889 40.5907778,43.7668889 C41.45,44.114 42.399,44.7952222 42.9023333,45.5845556 C43.5747778,46.6387778 43.7212222,47.9121111 43.5294444,49.1282222 Z" id="path184" stroke="#1F1917" stroke-width="0.83313306" stroke-linejoin="round"></path>
                        <path d="M40.8932222,43.9023333 C40.8932222,43.9023333 41.0072222,43.817 41.0072222,43.817 C41.5045556,44.0853333 42.5243333,44.4592222 43.799,43.9898889 C43.799,43.9898889 43.879,44.0154444 43.879,44.0154444 C43.879,44.0154444 44.3174444,45.2125556 45.067,45.2125556 C45.067,45.2125556 44.0721111,45.7401111 42.7596667,45.3855556 C42.3001111,44.772 41.5902222,44.2387778 40.8932222,43.9023333" id="path186" fill="#D9261C" fill-rule="nonzero"></path>
                        <path d="M40.8932222,43.9023333 C40.8932222,43.9023333 41.0072222,43.817 41.0072222,43.817 C41.5045556,44.0853333 42.5243333,44.4592222 43.799,43.9898889 C43.799,43.9898889 43.879,44.0154444 43.879,44.0154444 C43.879,44.0154444 44.3174444,45.2125556 45.067,45.2125556 C45.067,45.2125556 44.0721111,45.7401111 42.7596667,45.3855556 C42.3001111,44.772 41.5902222,44.2387778 40.8932222,43.9023333 L40.8932222,43.9023333 Z" id="path188" stroke="#1F1917" stroke-width="0.83313306" stroke-linejoin="round"></path>
                        <path d="M38.9334444,43.8293333 C38.9334444,43.8293333 39,43.8597778 39,43.8597778 C39,43.8597778 38.9715556,43.937 38.9715556,43.937 C38.2985556,44.2736667 37.621,44.7902222 37.1766667,45.3826667 C37.1766667,45.3826667 37.17,45.3833333 37.17,45.3833333 C35.8524444,45.743 34.8537778,45.2125556 34.8537778,45.2125556 C35.6024444,45.2125556 36.0407778,44.0154444 36.0407778,44.0154444 C36.0407778,44.0154444 36.1343333,43.9706667 36.1343333,43.9706667 C37.3907778,44.4446667 38.4093333,44.1016667 38.934,43.8293333" id="path190" fill="#D9261C" fill-rule="nonzero"></path>
                        <path d="M38.9334444,43.8293333 C38.9334444,43.8293333 39,43.8597778 39,43.8597778 C39,43.8597778 38.9715556,43.937 38.9715556,43.937 C38.2985556,44.2736667 37.621,44.7902222 37.1766667,45.3826667 C37.1766667,45.3826667 37.17,45.3833333 37.17,45.3833333 C35.8524444,45.743 34.8537778,45.2125556 34.8537778,45.2125556 C35.6024444,45.2125556 36.0407778,44.0154444 36.0407778,44.0154444 C36.0407778,44.0154444 36.1343333,43.9706667 36.1343333,43.9706667 C37.3907778,44.4446667 38.4093333,44.1016667 38.934,43.8293333 L38.9334444,43.8293333 Z" id="path192" stroke="#1F1917" stroke-width="0.83313306" stroke-linejoin="round"></path>
                        <path d="M38.8487778,52.8094444 C39.0692222,53.2825556 39.2834444,53.6941111 39.4647778,54.0223333 C39.4647778,54.0223333 38.5933333,55.2298889 38.5933333,55.2298889 C38.5933333,55.2298889 37.9117778,53.7306667 37.9117778,53.7306667 C37.9117778,53.7306667 37.9117778,53.6705556 37.9117778,53.6705556 C37.9117778,53.6705556 38.8607778,52.8346667 38.8607778,52.8346667 C38.8563333,52.8268889 38.853,52.8176667 38.8487778,52.8094444" id="path194" fill="#D9261C" fill-rule="nonzero"></path>
                        <path d="M38.8487778,52.8094444 C39.0692222,53.2825556 39.2834444,53.6941111 39.4647778,54.0223333 C39.4647778,54.0223333 38.5933333,55.2298889 38.5933333,55.2298889 C38.5933333,55.2298889 37.9117778,53.7306667 37.9117778,53.7306667 C37.9117778,53.7306667 37.9117778,53.6705556 37.9117778,53.6705556 C37.9117778,53.6705556 38.8607778,52.8346667 38.8607778,52.8346667 C38.8563333,52.8268889 38.853,52.8176667 38.8487778,52.8094444 L38.8487778,52.8094444 Z" id="path196" stroke="#1F1917" stroke-width="0.83313306"></path>
                        <path d="M41.057,52.8201111 C41.057,52.8201111 42.0988889,53.7382222 42.0988889,53.7382222 C42.0988889,53.7382222 41.4213333,55.2298889 41.4213333,55.2298889 C41.4213333,55.2298889 40.5353333,54.0031111 40.5353333,54.0031111 C40.5353333,54.0031111 40.5353333,53.8588889 40.5353333,53.8588889 C40.7001111,53.5543333 40.8858889,53.1883333 41.0752222,52.7801111 C41.0696667,52.7936667 41.0626667,52.8072222 41.057,52.8201111" id="path198" fill="#D9261C" fill-rule="nonzero"></path>
                        <path d="M41.057,52.8201111 C41.057,52.8201111 42.0988889,53.7382222 42.0988889,53.7382222 C42.0988889,53.7382222 41.4213333,55.2298889 41.4213333,55.2298889 C41.4213333,55.2298889 40.5353333,54.0031111 40.5353333,54.0031111 C40.5353333,54.0031111 40.5353333,53.8588889 40.5353333,53.8588889 C40.7001111,53.5543333 40.8858889,53.1883333 41.0752222,52.7801111 C41.0696667,52.7936667 41.0626667,52.8072222 41.057,52.8201111 L41.057,52.8201111 Z" id="path200" stroke="#1F1917" stroke-width="0.83313306"></path>
                    </g>
                </g>
            </g>
        </g>
    </g>
</svg>